<svg xmlns="http://www.w3.org/2000/svg" xmlns:mydata="http://www.w3.org/2000/svg" mydata:companyname="Easy Eats" mydata:companytagline="Seu pedido a um clique" version="1.1" viewBox="120 100 320 300"><g fill="none" fill-rule="none" stroke="none" stroke-width="1" stroke-linecap="butt" stroke-linejoin="miter" stroke-miterlimit="10" stroke-dasharray="" stroke-dashoffset="0" font-family="none" font-weight="none" font-size="none" text-anchor="none" style="mix-blend-mode: normal"><g data-paper-data="{&quot;isGlobalGroup&quot;:true,&quot;bounds&quot;:{&quot;x&quot;:142.6964792225436,&quot;y&quot;:115.00000000000001,&quot;width&quot;:864.6070415549128,&quot;height&quot;:840}}"><g data-paper-data="{&quot;isSecondaryText&quot;:true}" fill="#e03c31" fill-rule="nonzero"><path d="M167.51187,348.32417c0,0.1928 0.06427,0.35548 0.1928,0.48803c0.12854,0.13255 0.29624,0.24703 0.5031,0.34343c0.20686,0.0964 0.44084,0.18075 0.70193,0.25306c0.26109,0.0723 0.52419,0.14661 0.78929,0.22293c0.42578,0.12854 0.81239,0.26511 1.15984,0.40971c0.34745,0.1446 0.64469,0.31732 0.89172,0.51816c0.24703,0.20084 0.43783,0.43883 0.57239,0.71398c0.13456,0.27515 0.20184,0.60552 0.20184,0.99113c0,0.42176 -0.08335,0.80134 -0.25004,1.13875c-0.16669,0.33741 -0.4067,0.6246 -0.72,0.86159c-0.31331,0.23699 -0.69188,0.41875 -1.13574,0.54527c-0.44385,0.12653 -0.94293,0.18979 -1.49724,0.18979c-0.28519,0 -0.57239,-0.01707 -0.86159,-0.05121c-0.28921,-0.03414 -0.56837,-0.08335 -0.83749,-0.14762c-0.26912,-0.06427 -0.52218,-0.14259 -0.75917,-0.23498c-0.23699,-0.09239 -0.44385,-0.19682 -0.62059,-0.31331c-0.17674,-0.11649 -0.31531,-0.24402 -0.41573,-0.3826c-0.10042,-0.13858 -0.15063,-0.28619 -0.15063,-0.44285c0,-0.10042 0.02109,-0.19883 0.06326,-0.29523c0.04218,-0.0964 0.0964,-0.18377 0.16268,-0.26209c0.06628,-0.07833 0.14059,-0.14159 0.22293,-0.18979c0.08234,-0.0482 0.16368,-0.0723 0.24402,-0.0723c0.0723,0 0.14259,0.01205 0.21088,0.03615c0.06828,0.0241 0.13757,0.05322 0.20787,0.08736c0.07029,0.03414 0.14259,0.0713 0.2169,0.11146c0.07431,0.04017 0.15364,0.07632 0.23799,0.10845c0.27716,0.12452 0.58845,0.23699 0.93389,0.33741c0.34544,0.10042 0.70695,0.15063 1.08452,0.15063c0.20485,0 0.39866,-0.01908 0.58142,-0.05724c0.18276,-0.03816 0.34343,-0.0964 0.48201,-0.17473c0.13858,-0.07833 0.24803,-0.17975 0.32837,-0.30427c0.08033,-0.12452 0.1205,-0.27515 0.1205,-0.45188c0,-0.13255 -0.0241,-0.25105 -0.0723,-0.35548c-0.0482,-0.10444 -0.11448,-0.19582 -0.19883,-0.27414c-0.08435,-0.07833 -0.18276,-0.14661 -0.29523,-0.20485c-0.11247,-0.05824 -0.23096,-0.10946 -0.35548,-0.15364l-0.27113,-0.0964c-0.05222,-0.01607 -0.10243,-0.03314 -0.15063,-0.05121c-0.0482,-0.01808 -0.10042,-0.03515 -0.15665,-0.05121l-0.31331,-0.09038c-0.06828,-0.01607 -0.12653,-0.03113 -0.17473,-0.04519c-0.0482,-0.01406 -0.09138,-0.02812 -0.12954,-0.04218c-0.03816,-0.01406 -0.07531,-0.02812 -0.11146,-0.04218c-0.03615,-0.01406 -0.07833,-0.02912 -0.12653,-0.04519l-0.56636,-0.19883c-0.36552,-0.13255 -0.67883,-0.27113 -0.93992,-0.41573c-0.26109,-0.1446 -0.47398,-0.30728 -0.63866,-0.48803c-0.16469,-0.18075 -0.28619,-0.38661 -0.36452,-0.61757c-0.07833,-0.23096 -0.11749,-0.49908 -0.11749,-0.80435c0,-0.40167 0.08335,-0.76519 0.25004,-1.09055c0.16669,-0.32536 0.40569,-0.60251 0.71699,-0.83147c0.3113,-0.22895 0.68887,-0.40569 1.13272,-0.53021c0.44385,-0.12452 0.94293,-0.18678 1.49724,-0.18678c0.20084,0 0.41975,0.01305 0.65674,0.03916c0.23699,0.02611 0.47398,0.06527 0.71096,0.11749c0.23699,0.05222 0.46494,0.1195 0.68385,0.20184c0.21891,0.08234 0.41272,0.17875 0.58142,0.28921c0.1687,0.11046 0.30427,0.23598 0.4067,0.37657c0.10243,0.14059 0.15364,0.29724 0.15364,0.46996c0,0.10042 -0.01908,0.1928 -0.05724,0.27716c-0.03816,0.08435 -0.08937,0.15665 -0.15364,0.2169c-0.06427,0.06025 -0.13958,0.10745 -0.22594,0.14159c-0.08636,0.03414 -0.17573,0.05121 -0.26812,0.05121c-0.1205,0 -0.23096,-0.02611 -0.33138,-0.07833c-0.18879,-0.0964 -0.36452,-0.17875 -0.5272,-0.24703c-0.16268,-0.06828 -0.32435,-0.12452 -0.48502,-0.1687c-0.16067,-0.04418 -0.32636,-0.07632 -0.49707,-0.0964c-0.17071,-0.02008 -0.35849,-0.03013 -0.56335,-0.03013c-0.1928,0 -0.3826,0.01707 -0.56937,0.05121c-0.18678,0.03414 -0.35347,0.08837 -0.50008,0.16268c-0.14661,0.07431 -0.26511,0.16971 -0.35548,0.28619c-0.09038,0.11649 -0.13557,0.25908 -0.13557,0.42778z" data-paper-data="{&quot;glyphName&quot;:&quot;S&quot;,&quot;glyphIndex&quot;:0,&quot;firstGlyphOfWord&quot;:true,&quot;word&quot;:1}"/><path d="M177.57783,354.78912c-0.20485,0 -0.37657,-0.04218 -0.51515,-0.12653c-0.13858,-0.08435 -0.25004,-0.19381 -0.33439,-0.32837c-0.08435,-0.13456 -0.1446,-0.28619 -0.18075,-0.4549c-0.03615,-0.1687 -0.05423,-0.33741 -0.05423,-0.50611v-5.74194c0,-0.22895 0.01406,-0.44084 0.04218,-0.63565c0.02812,-0.19481 0.09038,-0.36251 0.18678,-0.5031c0.0964,-0.14059 0.23699,-0.25105 0.42176,-0.33138c0.18477,-0.08033 0.43381,-0.1205 0.74711,-0.1205h3.86813c0.11649,0 0.22594,0.02109 0.32837,0.06326c0.10243,0.04218 0.1918,0.09841 0.26812,0.1687c0.07632,0.07029 0.13657,0.15364 0.18075,0.25004c0.04418,0.0964 0.06628,0.19883 0.06628,0.30728c0,0.10845 -0.02209,0.20987 -0.06628,0.30427c-0.04418,0.09439 -0.10444,0.17674 -0.18075,0.24703c-0.07632,0.07029 -0.16569,0.12552 -0.26812,0.16569c-0.10243,0.04017 -0.21188,0.06025 -0.32837,0.06025h-3.10294v1.95214h2.83181c0.11649,0 0.22594,0.02008 0.32837,0.06025c0.10243,0.04017 0.1918,0.0964 0.26812,0.1687c0.07632,0.0723 0.13657,0.15565 0.18075,0.25004c0.04418,0.09439 0.06628,0.19582 0.06628,0.30427c0,0.10845 -0.02209,0.20987 -0.06628,0.30427c-0.04418,0.09439 -0.10444,0.17674 -0.18075,0.24703c-0.07632,0.07029 -0.16569,0.12552 -0.26812,0.16569c-0.10243,0.04017 -0.21188,0.06025 -0.32837,0.06025h-2.83181v2.10879h3.25356c0.10845,0 0.20987,0.02008 0.30427,0.06025c0.09439,0.04017 0.17774,0.0964 0.25004,0.1687c0.0723,0.0723 0.12854,0.15565 0.1687,0.25004c0.04017,0.09439 0.06025,0.19582 0.06025,0.30427c0,0.10845 -0.02008,0.20987 -0.06025,0.30427c-0.04017,0.09439 -0.0964,0.17674 -0.1687,0.24703c-0.0723,0.07029 -0.15565,0.12552 -0.25004,0.16569c-0.09439,0.04017 -0.19582,0.06025 -0.30427,0.06025z" data-paper-data="{&quot;glyphName&quot;:&quot;E&quot;,&quot;glyphIndex&quot;:1,&quot;word&quot;:1}"/><path d="M191.97586,347.20952c0,-0.16469 0.02912,-0.31833 0.08736,-0.46092c0.05824,-0.14259 0.13757,-0.26711 0.23799,-0.37356c0.10042,-0.10644 0.21791,-0.18979 0.35247,-0.25004c0.13456,-0.06025 0.28017,-0.09038 0.43682,-0.09038c0.15665,0 0.30226,0.03013 0.43682,0.09038c0.13456,0.06025 0.25306,0.1436 0.35548,0.25004c0.10243,0.10644 0.18276,0.23096 0.241,0.37356c0.05824,0.14259 0.08736,0.29624 0.08736,0.46092v4.61524c0,0.53021 -0.09339,0.99314 -0.28017,1.38879c-0.18678,0.39565 -0.44787,0.72603 -0.78327,0.99113c-0.3354,0.26511 -0.73406,0.46393 -1.19599,0.59649c-0.46193,0.13255 -0.96804,0.19883 -1.51833,0.19883c-0.54226,0 -1.04335,-0.06527 -1.50327,-0.19582c-0.45992,-0.13054 -0.85758,-0.32636 -1.19297,-0.58745c-0.3354,-0.26109 -0.59749,-0.59046 -0.78628,-0.98812c-0.18879,-0.39766 -0.28318,-0.86561 -0.28318,-1.40385v-4.61524c0,-0.16469 0.02912,-0.31833 0.08736,-0.46092c0.05824,-0.14259 0.13757,-0.26711 0.23799,-0.37356c0.10042,-0.10644 0.21791,-0.18979 0.35247,-0.25004c0.13456,-0.06025 0.28017,-0.09038 0.43682,-0.09038c0.15665,0 0.30226,0.03013 0.43682,0.09038c0.13456,0.06025 0.25306,0.1436 0.35548,0.25004c0.10243,0.10644 0.18276,0.23096 0.241,0.37356c0.05824,0.14259 0.08736,0.29624 0.08736,0.46092l0.00603,4.57909c0,0.28921 0.04418,0.53824 0.13255,0.74711c0.08837,0.20887 0.20385,0.37958 0.34644,0.51214c0.14259,0.13255 0.30527,0.23096 0.48803,0.29523c0.18276,0.06427 0.36854,0.0964 0.55732,0.0964c0.1928,0 0.38059,-0.03213 0.56335,-0.0964c0.18276,-0.06427 0.34644,-0.16268 0.49105,-0.29523c0.1446,-0.13255 0.26209,-0.30326 0.35247,-0.51214c0.09038,-0.20887 0.13557,-0.45791 0.13557,-0.74711z" data-paper-data="{&quot;glyphName&quot;:&quot;U&quot;,&quot;glyphIndex&quot;:2,&quot;lastGlyphOfWord&quot;:true,&quot;word&quot;:1}"/><path d="M207.28167,353.61422c0,0.16469 -0.03013,0.31833 -0.09038,0.46092c-0.06025,0.14259 -0.14159,0.26711 -0.24402,0.37356c-0.10243,0.10644 -0.22092,0.18979 -0.35548,0.25004c-0.13456,0.06025 -0.28017,0.09038 -0.43682,0.09038c-0.15665,0 -0.30226,-0.03013 -0.43682,-0.09038c-0.13456,-0.06025 -0.25205,-0.1436 -0.35247,-0.25004c-0.10042,-0.10644 -0.17975,-0.23096 -0.23799,-0.37356c-0.05824,-0.14259 -0.08736,-0.29624 -0.08736,-0.46092v-5.92269c0,-0.22895 0.01506,-0.44485 0.04519,-0.6477c0.03013,-0.20285 0.09439,-0.37858 0.1928,-0.5272c0.09841,-0.14862 0.24301,-0.26611 0.43381,-0.35247c0.1908,-0.08636 0.44887,-0.12954 0.77423,-0.12954h2.17507c0.46193,0 0.90678,0.04017 1.33456,0.1205c0.42778,0.08033 0.80636,0.22193 1.13574,0.42477c0.32937,0.20285 0.59247,0.479 0.78929,0.82845c0.19682,0.34946 0.29523,0.7913 0.29523,1.32553c0,0.46193 -0.08536,0.8626 -0.25607,1.20201c-0.17071,0.33942 -0.41172,0.62159 -0.72301,0.84653c-0.3113,0.22494 -0.68586,0.39264 -1.12368,0.5031c-0.43783,0.11046 -0.92184,0.16569 -1.45205,0.16569h-1.37975zM208.29389,350.1076c0.25707,0 0.49205,-0.02209 0.70494,-0.06628c0.21289,-0.04418 0.39465,-0.11749 0.54527,-0.21992c0.15063,-0.10243 0.26812,-0.23799 0.35247,-0.4067c0.08435,-0.1687 0.12653,-0.39565 0.12653,-0.68084c0,-0.28117 -0.04017,-0.5031 -0.1205,-0.66578c-0.08033,-0.16268 -0.1918,-0.29423 -0.33439,-0.39465c-0.14259,-0.10042 -0.31331,-0.17272 -0.51214,-0.2169c-0.19883,-0.04418 -0.41875,-0.06628 -0.65975,-0.06628h-1.11465v2.71733z" data-paper-data="{&quot;glyphName&quot;:&quot;P&quot;,&quot;glyphIndex&quot;:3,&quot;firstGlyphOfWord&quot;:true,&quot;word&quot;:2}"/><path d="M217.08856,354.78912c-0.20485,0 -0.37657,-0.04218 -0.51515,-0.12653c-0.13858,-0.08435 -0.25004,-0.19381 -0.33439,-0.32837c-0.08435,-0.13456 -0.1446,-0.28619 -0.18075,-0.4549c-0.03615,-0.1687 -0.05423,-0.33741 -0.05423,-0.50611v-5.74194c0,-0.22895 0.01406,-0.44084 0.04218,-0.63565c0.02812,-0.19481 0.09038,-0.36251 0.18678,-0.5031c0.0964,-0.14059 0.23699,-0.25105 0.42176,-0.33138c0.18477,-0.08033 0.43381,-0.1205 0.74711,-0.1205h3.86813c0.11649,0 0.22594,0.02109 0.32837,0.06326c0.10243,0.04218 0.1918,0.09841 0.26812,0.1687c0.07632,0.07029 0.13657,0.15364 0.18075,0.25004c0.04418,0.0964 0.06628,0.19883 0.06628,0.30728c0,0.10845 -0.02209,0.20987 -0.06628,0.30427c-0.04418,0.09439 -0.10444,0.17674 -0.18075,0.24703c-0.07632,0.07029 -0.16569,0.12552 -0.26812,0.16569c-0.10243,0.04017 -0.21188,0.06025 -0.32837,0.06025h-3.10294v1.95214h2.83181c0.11649,0 0.22594,0.02008 0.32837,0.06025c0.10243,0.04017 0.1918,0.0964 0.26812,0.1687c0.07632,0.0723 0.13657,0.15565 0.18075,0.25004c0.04418,0.09439 0.06628,0.19582 0.06628,0.30427c0,0.10845 -0.02209,0.20987 -0.06628,0.30427c-0.04418,0.09439 -0.10444,0.17674 -0.18075,0.24703c-0.07632,0.07029 -0.16569,0.12552 -0.26812,0.16569c-0.10243,0.04017 -0.21188,0.06025 -0.32837,0.06025h-2.83181v2.10879h3.25356c0.10845,0 0.20987,0.02008 0.30427,0.06025c0.09439,0.04017 0.17774,0.0964 0.25004,0.1687c0.0723,0.0723 0.12854,0.15565 0.1687,0.25004c0.04017,0.09439 0.06025,0.19582 0.06025,0.30427c0,0.10845 -0.02008,0.20987 -0.06025,0.30427c-0.04017,0.09439 -0.0964,0.17674 -0.1687,0.24703c-0.0723,0.07029 -0.15565,0.12552 -0.25004,0.16569c-0.09439,0.04017 -0.19582,0.06025 -0.30427,0.06025z" data-paper-data="{&quot;glyphName&quot;:&quot;E&quot;,&quot;glyphIndex&quot;:4,&quot;word&quot;:2}"/><path d="M227.27503,354.78912c-0.2169,0 -0.39665,-0.04418 -0.53925,-0.13255c-0.14259,-0.08837 -0.25607,-0.20485 -0.34042,-0.34946c-0.08435,-0.1446 -0.14259,-0.30829 -0.17473,-0.49105c-0.03213,-0.18276 -0.0482,-0.37054 -0.0482,-0.56335v-5.66361c0,-0.26912 0.02611,-0.50209 0.07833,-0.69891c0.05222,-0.19682 0.13858,-0.35749 0.25908,-0.48201c0.1205,-0.12452 0.27816,-0.2169 0.47297,-0.27716c0.19481,-0.06025 0.43481,-0.09038 0.72,-0.09038h1.49423c1.64285,0 2.88202,0.36251 3.7175,1.08753c0.83548,0.72502 1.25322,1.84067 1.25322,3.34695c0,0.73506 -0.11448,1.37373 -0.34343,1.91599c-0.22895,0.54226 -0.55331,0.99113 -0.97306,1.34661c-0.41975,0.35548 -0.92486,0.61958 -1.51532,0.7923c-0.59046,0.17272 -1.24519,0.25908 -1.96419,0.25908zM228.37762,353.43949h0.82544c0.45791,0 0.85155,-0.05222 1.18092,-0.15665c0.32937,-0.10444 0.60151,-0.28318 0.8164,-0.53624c0.2149,-0.25306 0.37356,-0.56737 0.47598,-0.94293c0.10243,-0.37557 0.15364,-0.83649 0.15364,-1.38276c0,-1.01624 -0.21088,-1.77339 -0.63264,-2.27147c-0.42176,-0.49808 -1.06845,-0.74711 -1.94009,-0.74711h-0.87967z" data-paper-data="{&quot;glyphName&quot;:&quot;D&quot;,&quot;glyphIndex&quot;:5,&quot;word&quot;:2}"/><path d="M240.46201,353.61422c0,0.16469 -0.02912,0.31833 -0.08736,0.46092c-0.05824,0.14259 -0.13858,0.26711 -0.241,0.37356c-0.10243,0.10644 -0.22092,0.18979 -0.35548,0.25004c-0.13456,0.06025 -0.28017,0.09038 -0.43682,0.09038c-0.15665,0 -0.30226,-0.03013 -0.43682,-0.09038c-0.13456,-0.06025 -0.25205,-0.1436 -0.35247,-0.25004c-0.10042,-0.10644 -0.17975,-0.23096 -0.23799,-0.37356c-0.05824,-0.14259 -0.08736,-0.29624 -0.08736,-0.46092v-6.4047c0,-0.16469 0.02912,-0.31833 0.08736,-0.46092c0.05824,-0.14259 0.13757,-0.26711 0.23799,-0.37356c0.10042,-0.10644 0.21791,-0.18979 0.35247,-0.25004c0.13456,-0.06025 0.28017,-0.09038 0.43682,-0.09038c0.15665,0 0.30226,0.03013 0.43682,0.09038c0.13456,0.06025 0.25306,0.1436 0.35548,0.25004c0.10243,0.10644 0.18276,0.23096 0.241,0.37356c0.05824,0.14259 0.08736,0.29624 0.08736,0.46092z" data-paper-data="{&quot;glyphName&quot;:&quot;I&quot;,&quot;glyphIndex&quot;:6,&quot;word&quot;:2}"/><path d="M245.95491,354.78912c-0.2169,0 -0.39665,-0.04418 -0.53925,-0.13255c-0.14259,-0.08837 -0.25607,-0.20485 -0.34042,-0.34946c-0.08435,-0.1446 -0.14259,-0.30829 -0.17473,-0.49105c-0.03213,-0.18276 -0.0482,-0.37054 -0.0482,-0.56335v-5.66361c0,-0.26912 0.02611,-0.50209 0.07833,-0.69891c0.05222,-0.19682 0.13858,-0.35749 0.25908,-0.48201c0.1205,-0.12452 0.27816,-0.2169 0.47297,-0.27716c0.19481,-0.06025 0.43481,-0.09038 0.72,-0.09038h1.49423c1.64285,0 2.88202,0.36251 3.7175,1.08753c0.83548,0.72502 1.25322,1.84067 1.25322,3.34695c0,0.73506 -0.11448,1.37373 -0.34343,1.91599c-0.22895,0.54226 -0.55331,0.99113 -0.97306,1.34661c-0.41975,0.35548 -0.92486,0.61958 -1.51532,0.7923c-0.59046,0.17272 -1.24519,0.25908 -1.96419,0.25908zM247.0575,353.43949h0.82544c0.45791,0 0.85155,-0.05222 1.18092,-0.15665c0.32937,-0.10444 0.60151,-0.28318 0.8164,-0.53624c0.2149,-0.25306 0.37356,-0.56737 0.47598,-0.94293c0.10243,-0.37557 0.15364,-0.83649 0.15364,-1.38276c0,-1.01624 -0.21088,-1.77339 -0.63264,-2.27147c-0.42176,-0.49808 -1.06845,-0.74711 -1.94009,-0.74711h-0.87967z" data-paper-data="{&quot;glyphName&quot;:&quot;D&quot;,&quot;glyphIndex&quot;:7,&quot;word&quot;:2}"/><path d="M258.6659,350.42091c0,0.99615 0.15866,1.74829 0.47598,2.25641c0.31732,0.50812 0.81339,0.76218 1.4882,0.76218c0.66276,0 1.15682,-0.25306 1.48218,-0.75917c0.32536,-0.50611 0.48803,-1.25925 0.48803,-2.25942c0,-0.48201 -0.03916,-0.9108 -0.11749,-1.28636c-0.07833,-0.37557 -0.19782,-0.69188 -0.35849,-0.94896c-0.16067,-0.25707 -0.36452,-0.45289 -0.61155,-0.58745c-0.24703,-0.13456 -0.54126,-0.20184 -0.88268,-0.20184c-0.33741,0 -0.62962,0.06728 -0.87665,0.20184c-0.24703,0.13456 -0.45088,0.33038 -0.61155,0.58745c-0.16067,0.25707 -0.28017,0.57339 -0.35849,0.94896c-0.07833,0.37557 -0.11749,0.80435 -0.11749,1.28636zM256.32213,350.42091c0,-0.66276 0.08937,-1.27532 0.26812,-1.83766c0.17875,-0.56234 0.44686,-1.04636 0.80435,-1.45205c0.35749,-0.40569 0.80536,-0.72301 1.3436,-0.95197c0.53824,-0.22895 1.16887,-0.34343 1.89189,-0.34343c0.70293,0 1.32352,0.11046 1.86176,0.33138c0.53824,0.22092 0.98812,0.53322 1.34963,0.93691c0.36151,0.40368 0.63465,0.8867 0.81942,1.44904c0.18477,0.56234 0.27716,1.18494 0.27716,1.86779c0,0.6708 -0.09038,1.28737 -0.27113,1.84971c-0.18075,0.56234 -0.45188,1.04536 -0.81339,1.44904c-0.36151,0.40368 -0.81138,0.71799 -1.34963,0.94293c-0.53824,0.22494 -1.16285,0.33741 -1.87381,0.33741c-0.6949,0 -1.31046,-0.10845 -1.8467,-0.32536c-0.53624,-0.2169 -0.98712,-0.52519 -1.35264,-0.92486c-0.36552,-0.39967 -0.64168,-0.88067 -0.82845,-1.44302c-0.18678,-0.56234 -0.28017,-1.19097 -0.28017,-1.88586z" data-paper-data="{&quot;glyphName&quot;:&quot;O&quot;,&quot;glyphIndex&quot;:8,&quot;lastGlyphOfWord&quot;:true,&quot;word&quot;:2}"/><path d="M278.64721,347.6855l-1.32553,3.87415h2.67515l-1.3195,-3.87415zM282.57558,352.96351c0.02812,0.0723 0.05824,0.14762 0.09038,0.22594c0.03213,0.07833 0.06226,0.15766 0.09038,0.23799c0.02812,0.08033 0.05121,0.15766 0.06929,0.23197c0.01808,0.07431 0.02711,0.14159 0.02711,0.20184c0,0.14862 -0.02711,0.28017 -0.08134,0.39465c-0.05423,0.11448 -0.12753,0.21088 -0.21992,0.28921c-0.09239,0.07833 -0.19983,0.13858 -0.32234,0.18075c-0.12251,0.04218 -0.25205,0.06326 -0.38862,0.06326c-0.15665,0 -0.29121,-0.02209 -0.40368,-0.06628c-0.11247,-0.04418 -0.21289,-0.11448 -0.30126,-0.21088c-0.08837,-0.0964 -0.16971,-0.22193 -0.24402,-0.37657c-0.07431,-0.15464 -0.15364,-0.34444 -0.23799,-0.56937l-0.28921,-0.76519h-3.41022l-0.24703,0.76519c-0.0723,0.22895 -0.14561,0.42176 -0.21992,0.57841c-0.07431,0.15665 -0.15665,0.28218 -0.24703,0.37657c-0.09038,0.09439 -0.19381,0.16268 -0.31029,0.20485c-0.11649,0.04218 -0.25306,0.06326 -0.40971,0.06326c-0.13657,0 -0.26611,-0.02109 -0.38862,-0.06326c-0.12251,-0.04218 -0.22996,-0.10243 -0.32234,-0.18075c-0.09239,-0.07833 -0.16569,-0.17473 -0.21992,-0.28921c-0.05423,-0.11448 -0.08134,-0.24603 -0.08134,-0.39465c0,-0.06025 0.00904,-0.12753 0.02711,-0.20184c0.01808,-0.07431 0.04117,-0.15163 0.06929,-0.23197c0.02812,-0.08033 0.05824,-0.15967 0.09038,-0.23799c0.03213,-0.07833 0.06226,-0.15364 0.09038,-0.22594l1.62076,-4.38026c0.15264,-0.40971 0.29824,-0.77222 0.43682,-1.08753c0.13858,-0.31531 0.29121,-0.58142 0.45791,-0.79833c0.16669,-0.2169 0.35849,-0.38059 0.5754,-0.49105c0.2169,-0.11046 0.48,-0.16569 0.78929,-0.16569c0.28921,0 0.53624,0.04318 0.74109,0.12954c0.20485,0.08636 0.38962,0.22895 0.55431,0.42778c0.16469,0.19883 0.32134,0.46092 0.46996,0.78628c0.14862,0.32536 0.31331,0.72502 0.49406,1.199z" data-paper-data="{&quot;glyphName&quot;:&quot;A&quot;,&quot;glyphIndex&quot;:9,&quot;firstGlyphOfWord&quot;:true,&quot;lastGlyphOfWord&quot;:true,&quot;word&quot;:3}"/><path d="M298.47788,347.20952c0,-0.16469 0.02912,-0.31833 0.08736,-0.46092c0.05824,-0.14259 0.13757,-0.26711 0.23799,-0.37356c0.10042,-0.10644 0.21791,-0.18979 0.35247,-0.25004c0.13456,-0.06025 0.28017,-0.09038 0.43682,-0.09038c0.15665,0 0.30226,0.03013 0.43682,0.09038c0.13456,0.06025 0.25306,0.1436 0.35548,0.25004c0.10243,0.10644 0.18276,0.23096 0.241,0.37356c0.05824,0.14259 0.08736,0.29624 0.08736,0.46092v4.61524c0,0.53021 -0.09339,0.99314 -0.28017,1.38879c-0.18678,0.39565 -0.44787,0.72603 -0.78327,0.99113c-0.3354,0.26511 -0.73406,0.46393 -1.19599,0.59649c-0.46193,0.13255 -0.96804,0.19883 -1.51833,0.19883c-0.54226,0 -1.04335,-0.06527 -1.50327,-0.19582c-0.45992,-0.13054 -0.85758,-0.32636 -1.19297,-0.58745c-0.3354,-0.26109 -0.59749,-0.59046 -0.78628,-0.98812c-0.18879,-0.39766 -0.28318,-0.86561 -0.28318,-1.40385v-4.61524c0,-0.16469 0.02912,-0.31833 0.08736,-0.46092c0.05824,-0.14259 0.13757,-0.26711 0.23799,-0.37356c0.10042,-0.10644 0.21791,-0.18979 0.35247,-0.25004c0.13456,-0.06025 0.28017,-0.09038 0.43682,-0.09038c0.15665,0 0.30226,0.03013 0.43682,0.09038c0.13456,0.06025 0.25306,0.1436 0.35548,0.25004c0.10243,0.10644 0.18276,0.23096 0.241,0.37356c0.05824,0.14259 0.08736,0.29624 0.08736,0.46092l0.00603,4.57909c0,0.28921 0.04418,0.53824 0.13255,0.74711c0.08837,0.20887 0.20385,0.37958 0.34644,0.51214c0.14259,0.13255 0.30527,0.23096 0.48803,0.29523c0.18276,0.06427 0.36854,0.0964 0.55732,0.0964c0.1928,0 0.38059,-0.03213 0.56335,-0.0964c0.18276,-0.06427 0.34644,-0.16268 0.49105,-0.29523c0.1446,-0.13255 0.26209,-0.30326 0.35247,-0.51214c0.09038,-0.20887 0.13557,-0.45791 0.13557,-0.74711z" data-paper-data="{&quot;glyphName&quot;:&quot;U&quot;,&quot;glyphIndex&quot;:10,&quot;firstGlyphOfWord&quot;:true,&quot;word&quot;:4}"/><path d="M313.7375,348.14341c-0.35749,0.88368 -0.67682,1.67097 -0.95799,2.36185c-0.1205,0.29724 -0.23699,0.58644 -0.34946,0.86762c-0.11247,0.28117 -0.21389,0.53222 -0.30427,0.75314c-0.09038,0.22092 -0.16368,0.39967 -0.21992,0.53624l-0.07833,0.19883c-0.08435,0.20485 -0.17372,0.39967 -0.26812,0.58444c-0.09439,0.18477 -0.20184,0.34644 -0.32234,0.48502c-0.1205,0.13858 -0.25607,0.24904 -0.4067,0.33138c-0.15063,0.08234 -0.32435,0.12351 -0.52117,0.12351c-0.18075,0 -0.33942,-0.03113 -0.47598,-0.09339c-0.13657,-0.06226 -0.26209,-0.15665 -0.37657,-0.28318c-0.11448,-0.12653 -0.22193,-0.28519 -0.32234,-0.47598c-0.10042,-0.1908 -0.20084,-0.41272 -0.30126,-0.66578l-1.89791,-4.69959v5.74796c0,0.1205 -0.0231,0.23498 -0.06929,0.34343c-0.04619,0.10845 -0.10946,0.20184 -0.18979,0.28017c-0.08033,0.07833 -0.17473,0.14059 -0.28318,0.18678c-0.10845,0.04619 -0.22293,0.06929 -0.34343,0.06929c-0.1205,0 -0.23498,-0.0231 -0.34343,-0.06929c-0.10845,-0.04619 -0.20184,-0.10845 -0.28017,-0.18678c-0.07833,-0.07833 -0.14059,-0.17172 -0.18678,-0.28017c-0.04619,-0.10845 -0.06929,-0.22293 -0.06929,-0.34343v-5.56119c0,-0.34946 0.01808,-0.66778 0.05423,-0.95498c0.03615,-0.2872 0.10946,-0.53121 0.21992,-0.73205c0.11046,-0.20084 0.26511,-0.35649 0.46393,-0.46695c0.19883,-0.11046 0.46092,-0.16569 0.78628,-0.16569c0.23297,0 0.43682,0.04017 0.61155,0.1205c0.17473,0.08033 0.33741,0.20987 0.48803,0.38862c0.15063,0.17875 0.29724,0.41071 0.43983,0.6959c0.14259,0.28519 0.29824,0.63063 0.46695,1.03632l1.60871,3.8862h0.0482l1.62678,-3.8862c0.1446,-0.34544 0.28619,-0.65674 0.42477,-0.93389c0.13858,-0.27716 0.28619,-0.51214 0.44285,-0.70494c0.15665,-0.1928 0.32736,-0.34142 0.51214,-0.44586c0.18477,-0.10444 0.39565,-0.15665 0.63264,-0.15665c0.25707,0 0.48101,0.03816 0.6718,0.11448c0.1908,0.07632 0.34745,0.19883 0.46996,0.36753c0.12251,0.1687 0.21389,0.38661 0.27414,0.65373c0.06025,0.26711 0.09038,0.58946 0.09038,0.96703v5.77809c0,0.1205 -0.0231,0.23498 -0.06929,0.34343c-0.04619,0.10845 -0.10946,0.20184 -0.18979,0.28017c-0.08033,0.07833 -0.17473,0.14059 -0.28318,0.18678c-0.10845,0.04619 -0.22293,0.06929 -0.34343,0.06929c-0.1205,0 -0.23498,-0.0231 -0.34343,-0.06929c-0.10845,-0.04619 -0.20184,-0.10845 -0.28017,-0.18678c-0.07833,-0.07833 -0.14059,-0.17172 -0.18678,-0.28017c-0.04619,-0.10845 -0.06929,-0.22293 -0.06929,-0.34343z" data-paper-data="{&quot;glyphName&quot;:&quot;M&quot;,&quot;glyphIndex&quot;:11,&quot;lastGlyphOfWord&quot;:true,&quot;word&quot;:4}"/><path d="M326.09101,350.48719c0,-0.73105 0.10745,-1.38477 0.32234,-1.96118c0.2149,-0.5764 0.51515,-1.06343 0.90076,-1.46109c0.38561,-0.39766 0.84452,-0.70193 1.37674,-0.91281c0.53222,-0.21088 1.11565,-0.31632 1.7503,-0.31632c0.50209,0 0.93891,0.03113 1.31046,0.09339c0.37155,0.06226 0.67983,0.14762 0.92486,0.25607c0.24502,0.10845 0.42778,0.23699 0.54829,0.38561c0.1205,0.14862 0.18075,0.30929 0.18075,0.48201c0,0.11649 -0.0241,0.21791 -0.0723,0.30427c-0.0482,0.08636 -0.11146,0.15766 -0.18979,0.21389c-0.07833,0.05623 -0.16569,0.09741 -0.26209,0.12351c-0.0964,0.02611 -0.1928,0.03916 -0.28921,0.03916c-0.05623,0 -0.11247,-0.001 -0.1687,-0.00301c-0.05623,-0.00201 -0.11046,-0.01105 -0.16268,-0.02711c-0.15264,-0.04017 -0.29824,-0.07933 -0.43682,-0.11749c-0.13858,-0.03816 -0.27515,-0.0713 -0.40971,-0.09941c-0.13456,-0.02812 -0.26912,-0.05121 -0.40368,-0.06929c-0.13456,-0.01808 -0.27414,-0.02711 -0.41875,-0.02711c-0.30126,0 -0.58544,0.04519 -0.85255,0.13557c-0.26711,0.09038 -0.49908,0.25004 -0.6959,0.479c-0.19682,0.22895 -0.35247,0.53925 -0.46695,0.93088c-0.11448,0.39163 -0.17172,0.89071 -0.17172,1.49724c0,0.46594 0.04619,0.88469 0.13858,1.25624c0.09239,0.37155 0.22996,0.68686 0.41272,0.94594c0.18276,0.25908 0.41172,0.45791 0.68686,0.59649c0.27515,0.13858 0.59548,0.20787 0.96101,0.20787c0.14862,0 0.30326,-0.01607 0.46393,-0.0482c0.16067,-0.03213 0.32536,-0.07331 0.49406,-0.12351c0.1687,-0.05021 0.34042,-0.10745 0.51515,-0.17172c0.17473,-0.06427 0.34845,-0.12854 0.52117,-0.1928c0.05222,-0.01607 0.11649,-0.0241 0.1928,-0.0241c0.10042,0 0.1918,0.01908 0.27414,0.05724c0.08234,0.03816 0.15364,0.08937 0.21389,0.15364c0.06025,0.06427 0.10644,0.13958 0.13858,0.22594c0.03213,0.08636 0.0482,0.17774 0.0482,0.27414c0,0.15665 -0.05121,0.30025 -0.15364,0.4308c-0.10243,0.13054 -0.23799,0.24803 -0.4067,0.35247c-0.1687,0.10444 -0.36251,0.19582 -0.58142,0.27414c-0.21891,0.07833 -0.44485,0.1436 -0.67783,0.19582c-0.23297,0.05222 -0.46494,0.09138 -0.6959,0.11749c-0.23096,0.02611 -0.44485,0.03916 -0.64168,0.03916c-0.59448,0 -1.14879,-0.09941 -1.66293,-0.29824c-0.51414,-0.19883 -0.96,-0.49004 -1.33758,-0.87364c-0.37757,-0.3836 -0.67481,-0.85557 -0.89172,-1.4159c-0.2169,-0.56034 -0.32536,-1.20201 -0.32536,-1.92503z" data-paper-data="{&quot;glyphName&quot;:&quot;C&quot;,&quot;glyphIndex&quot;:12,&quot;firstGlyphOfWord&quot;:true,&quot;word&quot;:5}"/><path d="M343.12804,353.18644c0.10845,0 0.21188,0.02109 0.31029,0.06326c0.09841,0.04218 0.18377,0.09941 0.25607,0.17172c0.0723,0.0723 0.12954,0.15766 0.17172,0.25607c0.04218,0.09841 0.06326,0.20184 0.06326,0.31029c0,0.10845 -0.02109,0.21188 -0.06326,0.31029c-0.04218,0.09841 -0.09941,0.18377 -0.17172,0.25607c-0.0723,0.0723 -0.15766,0.12954 -0.25607,0.17172c-0.09841,0.04218 -0.20184,0.06326 -0.31029,0.06326h-4.12721c-0.2169,0 -0.39766,-0.0472 -0.54226,-0.14159c-0.1446,-0.09439 -0.26008,-0.21891 -0.34644,-0.37356c-0.08636,-0.15464 -0.14661,-0.33038 -0.18075,-0.5272c-0.03414,-0.19682 -0.05121,-0.39766 -0.05121,-0.60251v-5.93474c0,-0.16469 0.02912,-0.31833 0.08736,-0.46092c0.05824,-0.14259 0.13757,-0.26711 0.23799,-0.37356c0.10042,-0.10644 0.21791,-0.18979 0.35247,-0.25004c0.13456,-0.06025 0.28017,-0.09038 0.43682,-0.09038c0.15665,0 0.30226,0.03013 0.43682,0.09038c0.13456,0.06025 0.25306,0.1436 0.35548,0.25004c0.10243,0.10644 0.18276,0.23096 0.241,0.37356c0.05824,0.14259 0.08736,0.29624 0.08736,0.46092l0.00603,5.97692z" data-paper-data="{&quot;glyphName&quot;:&quot;L&quot;,&quot;glyphIndex&quot;:13,&quot;word&quot;:5}"/><path d="M349.94044,353.61422c0,0.16469 -0.02912,0.31833 -0.08736,0.46092c-0.05824,0.14259 -0.13858,0.26711 -0.241,0.37356c-0.10243,0.10644 -0.22092,0.18979 -0.35548,0.25004c-0.13456,0.06025 -0.28017,0.09038 -0.43682,0.09038c-0.15665,0 -0.30226,-0.03013 -0.43682,-0.09038c-0.13456,-0.06025 -0.25205,-0.1436 -0.35247,-0.25004c-0.10042,-0.10644 -0.17975,-0.23096 -0.23799,-0.37356c-0.05824,-0.14259 -0.08736,-0.29624 -0.08736,-0.46092v-6.4047c0,-0.16469 0.02912,-0.31833 0.08736,-0.46092c0.05824,-0.14259 0.13757,-0.26711 0.23799,-0.37356c0.10042,-0.10644 0.21791,-0.18979 0.35247,-0.25004c0.13456,-0.06025 0.28017,-0.09038 0.43682,-0.09038c0.15665,0 0.30226,0.03013 0.43682,0.09038c0.13456,0.06025 0.25306,0.1436 0.35548,0.25004c0.10243,0.10644 0.18276,0.23096 0.241,0.37356c0.05824,0.14259 0.08736,0.29624 0.08736,0.46092z" data-paper-data="{&quot;glyphName&quot;:&quot;I&quot;,&quot;glyphIndex&quot;:14,&quot;word&quot;:5}"/><path d="M354.01743,350.42091c0,-0.66678 0.08937,-1.28034 0.26812,-1.84067c0.17875,-0.56034 0.44787,-1.04335 0.80737,-1.44904c0.3595,-0.40569 0.80837,-0.72301 1.34661,-0.95197c0.53824,-0.22895 1.16686,-0.34343 1.88586,-0.34343c0.6949,0 1.30846,0.10544 1.84067,0.31632c0.53222,0.21088 0.97808,0.51214 1.33758,0.90377c0.3595,0.39163 0.63163,0.86661 0.8164,1.42494c0.18477,0.55833 0.27716,1.18494 0.27716,1.87984c0,0.29724 -0.02912,0.58343 -0.08736,0.85858c-0.05824,0.27515 -0.14059,0.53624 -0.24703,0.78327c-0.10644,0.24703 -0.23398,0.48 -0.3826,0.69891c-0.14862,0.21891 -0.31331,0.42075 -0.49406,0.60552h0.46996c0.13255,0 0.2631,0.01004 0.39163,0.03013c0.12854,0.02008 0.24301,0.05724 0.34343,0.11146c0.10042,0.05423 0.18176,0.12854 0.24402,0.22293c0.06226,0.09439 0.09339,0.2159 0.09339,0.36452c0,0.24904 -0.08435,0.43481 -0.25306,0.55732c-0.1687,0.12251 -0.42377,0.18979 -0.76519,0.20184l-2.16302,0.08435c-0.10845,0.00803 -0.20385,0.01205 -0.28619,0.01205c-0.08234,0 -0.13958,0 -0.17172,0l-0.27716,0.04218c-0.15264,0.0241 -0.27916,0.04117 -0.37958,0.05121c-0.10042,0.01004 -0.1928,0.01506 -0.27716,0.01506c-0.70293,0 -1.32452,-0.10845 -1.86477,-0.32536c-0.54025,-0.2169 -0.99314,-0.52519 -1.35866,-0.92486c-0.36552,-0.39967 -0.64268,-0.88168 -0.83147,-1.44603c-0.18879,-0.56435 -0.28318,-1.19197 -0.28318,-1.88285zM356.36121,350.42091c0,0.99615 0.15866,1.74829 0.47598,2.25641c0.31732,0.50812 0.81339,0.76218 1.4882,0.76218c0.66276,0 1.15682,-0.25306 1.48218,-0.75917c0.32536,-0.50611 0.48803,-1.25925 0.48803,-2.25942c0,-0.48201 -0.03916,-0.9108 -0.11749,-1.28636c-0.07833,-0.37557 -0.19782,-0.69188 -0.35849,-0.94896c-0.16067,-0.25707 -0.36452,-0.45289 -0.61155,-0.58745c-0.24703,-0.13456 -0.54126,-0.20184 -0.88268,-0.20184c-0.33741,0 -0.62962,0.06728 -0.87665,0.20184c-0.24703,0.13456 -0.45088,0.33038 -0.61155,0.58745c-0.16067,0.25707 -0.28017,0.57339 -0.35849,0.94896c-0.07833,0.37557 -0.11749,0.80435 -0.11749,1.28636z" data-paper-data="{&quot;glyphName&quot;:&quot;Q&quot;,&quot;glyphIndex&quot;:15,&quot;word&quot;:5}"/><path d="M371.92811,347.20952c0,-0.16469 0.02912,-0.31833 0.08736,-0.46092c0.05824,-0.14259 0.13757,-0.26711 0.23799,-0.37356c0.10042,-0.10644 0.21791,-0.18979 0.35247,-0.25004c0.13456,-0.06025 0.28017,-0.09038 0.43682,-0.09038c0.15665,0 0.30226,0.03013 0.43682,0.09038c0.13456,0.06025 0.25306,0.1436 0.35548,0.25004c0.10243,0.10644 0.18276,0.23096 0.241,0.37356c0.05824,0.14259 0.08736,0.29624 0.08736,0.46092v4.61524c0,0.53021 -0.09339,0.99314 -0.28017,1.38879c-0.18678,0.39565 -0.44787,0.72603 -0.78327,0.99113c-0.3354,0.26511 -0.73406,0.46393 -1.19599,0.59649c-0.46193,0.13255 -0.96804,0.19883 -1.51833,0.19883c-0.54226,0 -1.04335,-0.06527 -1.50327,-0.19582c-0.45992,-0.13054 -0.85758,-0.32636 -1.19297,-0.58745c-0.3354,-0.26109 -0.59749,-0.59046 -0.78628,-0.98812c-0.18879,-0.39766 -0.28318,-0.86561 -0.28318,-1.40385v-4.61524c0,-0.16469 0.02912,-0.31833 0.08736,-0.46092c0.05824,-0.14259 0.13757,-0.26711 0.23799,-0.37356c0.10042,-0.10644 0.21791,-0.18979 0.35247,-0.25004c0.13456,-0.06025 0.28017,-0.09038 0.43682,-0.09038c0.15665,0 0.30226,0.03013 0.43682,0.09038c0.13456,0.06025 0.25306,0.1436 0.35548,0.25004c0.10243,0.10644 0.18276,0.23096 0.241,0.37356c0.05824,0.14259 0.08736,0.29624 0.08736,0.46092l0.00603,4.57909c0,0.28921 0.04418,0.53824 0.13255,0.74711c0.08837,0.20887 0.20385,0.37958 0.34644,0.51214c0.14259,0.13255 0.30527,0.23096 0.48803,0.29523c0.18276,0.06427 0.36854,0.0964 0.55732,0.0964c0.1928,0 0.38059,-0.03213 0.56335,-0.0964c0.18276,-0.06427 0.34644,-0.16268 0.49105,-0.29523c0.1446,-0.13255 0.26209,-0.30326 0.35247,-0.51214c0.09038,-0.20887 0.13557,-0.45791 0.13557,-0.74711z" data-paper-data="{&quot;glyphName&quot;:&quot;U&quot;,&quot;glyphIndex&quot;:16,&quot;word&quot;:5}"/><path d="M379.60813,354.78912c-0.20485,0 -0.37657,-0.04218 -0.51515,-0.12653c-0.13858,-0.08435 -0.25004,-0.19381 -0.33439,-0.32837c-0.08435,-0.13456 -0.1446,-0.28619 -0.18075,-0.4549c-0.03615,-0.1687 -0.05423,-0.33741 -0.05423,-0.50611v-5.74194c0,-0.22895 0.01406,-0.44084 0.04218,-0.63565c0.02812,-0.19481 0.09038,-0.36251 0.18678,-0.5031c0.0964,-0.14059 0.23699,-0.25105 0.42176,-0.33138c0.18477,-0.08033 0.43381,-0.1205 0.74711,-0.1205h3.86813c0.11649,0 0.22594,0.02109 0.32837,0.06326c0.10243,0.04218 0.1918,0.09841 0.26812,0.1687c0.07632,0.07029 0.13657,0.15364 0.18075,0.25004c0.04418,0.0964 0.06628,0.19883 0.06628,0.30728c0,0.10845 -0.02209,0.20987 -0.06628,0.30427c-0.04418,0.09439 -0.10444,0.17674 -0.18075,0.24703c-0.07632,0.07029 -0.16569,0.12552 -0.26812,0.16569c-0.10243,0.04017 -0.21188,0.06025 -0.32837,0.06025h-3.10294v1.95214h2.83181c0.11649,0 0.22594,0.02008 0.32837,0.06025c0.10243,0.04017 0.1918,0.0964 0.26812,0.1687c0.07632,0.0723 0.13657,0.15565 0.18075,0.25004c0.04418,0.09439 0.06628,0.19582 0.06628,0.30427c0,0.10845 -0.02209,0.20987 -0.06628,0.30427c-0.04418,0.09439 -0.10444,0.17674 -0.18075,0.24703c-0.07632,0.07029 -0.16569,0.12552 -0.26812,0.16569c-0.10243,0.04017 -0.21188,0.06025 -0.32837,0.06025h-2.83181v2.10879h3.25356c0.10845,0 0.20987,0.02008 0.30427,0.06025c0.09439,0.04017 0.17774,0.0964 0.25004,0.1687c0.0723,0.0723 0.12854,0.15565 0.1687,0.25004c0.04017,0.09439 0.06025,0.19582 0.06025,0.30427c0,0.10845 -0.02008,0.20987 -0.06025,0.30427c-0.04017,0.09439 -0.0964,0.17674 -0.1687,0.24703c-0.0723,0.07029 -0.15565,0.12552 -0.25004,0.16569c-0.09439,0.04017 -0.19582,0.06025 -0.30427,0.06025z" data-paper-data="{&quot;glyphName&quot;:&quot;E&quot;,&quot;glyphIndex&quot;:17,&quot;lastGlyphOfWord&quot;:true,&quot;word&quot;:5}"/></g><g data-paper-data="{&quot;isPrimaryText&quot;:true}" fill-rule="nonzero"><path d="M146.78017,310.70299v4.08369h-4.08369v8.71188h4.08369v1.63348h-4.08369v8.71188h4.08369v4.12259h20.69071v-6.5728h-22.2853v-3.77255h1.59459v2.72246h2.48911v-6.84505h10.50093v1.63348h-9.45083v2.48911h11.93994v-6.5728h-17.07373v-3.77255h1.59459v2.72246h2.48911v-6.84505h15.7125v1.63348h-14.6624v2.48911h17.15151v-6.5728zM164.98178,333.84392v1.63348h-15.7125v-1.63348z" data-paper-data="{&quot;glyphName&quot;:&quot;E&quot;,&quot;glyphIndex&quot;:0,&quot;firstGlyphOfWord&quot;:true,&quot;word&quot;:1}" fill="#e03c31"/><path d="M193.87877,330.26582l1.0112,2.48911h0.66117l1.20566,2.72246h-1.78905l-2.99471,-6.88394h4.5504l-7.93403,-17.81268l-2.13908,4.90043l-2.13908,-4.97822l-7.89514,17.89047h4.47262l-0.73895,1.63348h-4.47262l-3.38363,7.73957h7.23397l1.82794,-4.20037h-2.72246l-0.73895,1.71126h-1.78905l1.20566,-2.76135h13.76788l2.25575,5.25046h7.23397l-3.38363,-7.70068zM184.27237,316.88686l0.81674,1.94462l-3.15028,7.27286h-1.71126zM184.70018,328.59345h4.58929l0.73895,1.67237l-7.15619,-0.03889l3.57809,-8.28406l1.36123,3.15028h2.68357l-2.68357,-6.26166l0.81674,-1.90572l4.08369,9.17859h-6.92283z" data-paper-data="{&quot;glyphName&quot;:&quot;A&quot;,&quot;glyphIndex&quot;:1,&quot;word&quot;:1}" fill="#ffb25b"/><path d="M231.721,328.20453c-0.93342,-4.08369 -3.46142,-2.80025 -18.35717,-9.87865h-2.37243c-0.62228,0 -0.97231,0.15557 -1.28345,0.42782c0.58338,0.66117 1.63348,1.36123 2.25575,1.67237c4.16148,2.0224 14.42905,6.02831 15.168,6.33945c0.89452,0.35003 1.43902,0.58338 1.78905,1.05009c0.58338,0.73895 0.58338,1.86683 -0.19446,2.76135c-0.81674,-1.36123 -1.59459,-1.71126 -2.80025,-2.21686l-15.94585,-6.84505c-1.94462,-0.81674 -1.94462,-3.11139 -0.66117,-3.85034c0.35003,-0.19446 0.93342,-0.42782 1.82794,-0.42782h20.61293v-6.5728h-17.65711c-3.11139,0 -5.40603,1.94462 -5.52271,4.58929c-1.90572,0.89452 -2.95582,2.83914 -2.528,5.17268c0.38892,2.33354 2.91692,3.38363 2.99471,3.38363c0.07778,0.03889 11.00653,4.66708 15.36247,6.61169c0.66117,0.27225 1.40012,0.5056 1.82794,0.93342c1.67237,1.47791 0.27225,4.08369 -2.21686,4.08369h-15.55693v-1.59459h16.99594c0.58338,-0.58338 0.58338,-1.43902 -0.19446,-1.90572c-0.31114,-0.19446 -0.58338,-0.31114 -1.32234,-0.58338h-17.96825v6.5728h18.04604c1.82794,0 3.65588,-0.97231 4.62819,-2.37243c0.46671,-0.70006 0.73895,-1.47791 0.77785,-2.37243c1.75015,-1.05009 2.72246,-2.99471 2.29465,-4.97822zM229.27078,313.1532v1.59459h-18.08493c0.31114,-0.97231 1.40012,-1.59459 2.91692,-1.59459z" data-paper-data="{&quot;glyphName&quot;:&quot;S&quot;,&quot;glyphIndex&quot;:2,&quot;word&quot;:1}" fill="#e03c31"/><path d="M261.24027,313.1532h2.0224l-5.67828,7.27286v4.0448l10.73428,-13.80677h-8.28406l-5.98942,7.66179v5.71717h-1.59459v-5.71717l-5.95052,-7.66179h-8.32296l12.44554,15.86807h3.42252v8.90634h-1.59459v-7.85625h-2.48911v10.34536h6.5728v-18.7461zM243.27202,313.1532h1.98351l4.70597,6.02831v2.56689z" data-paper-data="{&quot;glyphName&quot;:&quot;Y&quot;,&quot;glyphIndex&quot;:3,&quot;lastGlyphOfWord&quot;:true,&quot;word&quot;:1}" fill="#ffb25b"/><path d="M297.0212,310.70299v4.08369h-4.08369v8.71188h4.08369v1.63348h-4.08369v8.71188h4.08369v4.12259h20.69071v-6.5728h-22.2853v-3.77255h1.59459v2.72246h2.48911v-6.84505h10.50093v1.63348h-9.45083v2.48911h11.93994v-6.5728h-17.07373v-3.77255h1.59459v2.72246h2.48911v-6.84505h15.7125v1.63348h-14.6624v2.48911h17.15151v-6.5728zM315.22281,333.84392v1.63348h-15.7125v-1.63348z" data-paper-data="{&quot;glyphName&quot;:&quot;E&quot;,&quot;glyphIndex&quot;:4,&quot;firstGlyphOfWord&quot;:true,&quot;word&quot;:2}" fill="#e03c31"/><path d="M344.1198,330.26582l1.0112,2.48911h0.66117l1.20566,2.72246h-1.78905l-2.99471,-6.88394h4.5504l-7.93403,-17.81268l-2.13908,4.90043l-2.13908,-4.97822l-7.89514,17.89047h4.47262l-0.73895,1.63348h-4.47262l-3.38363,7.73957h7.23397l1.82794,-4.20037h-2.72246l-0.73895,1.71126h-1.78905l1.20566,-2.76135h13.76788l2.25575,5.25046h7.23397l-3.38363,-7.70068zM334.5134,316.88686l0.81674,1.94462l-3.15028,7.27286h-1.71126zM334.94121,328.59345h4.58929l0.73895,1.67237l-7.15619,-0.03889l3.57809,-8.28406l1.36123,3.15028h2.68357l-2.68357,-6.26166l0.81674,-1.90572l4.08369,9.17859h-6.92283z" data-paper-data="{&quot;glyphName&quot;:&quot;A&quot;,&quot;glyphIndex&quot;:5,&quot;word&quot;:2}" fill="#ffb25b"/><path d="M363.79931,314.78668h-1.63348v-4.12259h-11.6288v6.61169h8.0896v-2.48911h-5.60049v-1.63348h6.65059v24.77441h6.61169v-19.60173h-2.48911v17.11262h-1.63348v-18.16271h13.26228v-6.61169h-11.6288zM366.28842,314.78668v-1.63348h6.65059v1.63348z" data-paper-data="{&quot;glyphName&quot;:&quot;T&quot;,&quot;glyphIndex&quot;:6,&quot;word&quot;:2}" fill="#e03c31"/><path d="M407.20314,328.20453c-0.93342,-4.08369 -3.46142,-2.80025 -18.35717,-9.87865h-2.37243c-0.62228,0 -0.97231,0.15557 -1.28345,0.42782c0.58338,0.66117 1.63348,1.36123 2.25575,1.67237c4.16148,2.0224 14.42905,6.02831 15.168,6.33945c0.89452,0.35003 1.43902,0.58338 1.78905,1.05009c0.58338,0.73895 0.58338,1.86683 -0.19446,2.76135c-0.81674,-1.36123 -1.59459,-1.71126 -2.80025,-2.21686l-15.94585,-6.84505c-1.94462,-0.81674 -1.94462,-3.11139 -0.66117,-3.85034c0.35003,-0.19446 0.93342,-0.42782 1.82794,-0.42782h20.61293v-6.5728h-17.65711c-3.11139,0 -5.40603,1.94462 -5.52271,4.58929c-1.90572,0.89452 -2.95582,2.83914 -2.528,5.17268c0.38892,2.33354 2.91692,3.38363 2.99471,3.38363c0.07778,0.03889 11.00653,4.66708 15.36247,6.61169c0.66117,0.27225 1.40012,0.5056 1.82794,0.93342c1.67237,1.47791 0.27225,4.08369 -2.21686,4.08369h-15.55693v-1.59459h16.99594c0.58338,-0.58338 0.58338,-1.43902 -0.19446,-1.90572c-0.31114,-0.19446 -0.58338,-0.31114 -1.32234,-0.58338h-17.96825v6.5728h18.04604c1.82794,0 3.65588,-0.97231 4.62819,-2.37243c0.46671,-0.70006 0.73895,-1.47791 0.77785,-2.37243c1.75015,-1.05009 2.72246,-2.99471 2.29465,-4.97822zM404.75292,313.1532v1.59459h-18.08493c0.31114,-0.97231 1.40012,-1.59459 2.91692,-1.59459z" data-paper-data="{&quot;glyphName&quot;:&quot;S&quot;,&quot;glyphIndex&quot;:7,&quot;lastGlyphOfWord&quot;:true,&quot;word&quot;:2}" fill="#ffb25b"/></g><g data-paper-data="{&quot;fillRule&quot;:&quot;evenodd&quot;,&quot;fillRuleOriginal&quot;:&quot;evenodd&quot;,&quot;isIcon&quot;:true,&quot;iconStyle&quot;:&quot;standalone&quot;,&quot;selectedEffects&quot;:{&quot;container&quot;:&quot;&quot;,&quot;transformation&quot;:&quot;&quot;,&quot;pattern&quot;:&quot;&quot;},&quot;bounds&quot;:{&quot;x&quot;:231.16306888406407,&quot;y&quot;:115.00000000000001,&quot;width&quot;:87.67386223187188,&quot;height&quot;:166.5817382383567},&quot;iconType&quot;:&quot;icon&quot;,&quot;rawIconId&quot;:&quot;23283&quot;,&quot;isDetailed&quot;:false,&quot;suitableAsStandaloneIcon&quot;:true}" fill-rule="evenodd"><g data-paper-data="{&quot;isPathIcon&quot;:true}"><path d="M275.491,155.16394c0,-3.80799 -1.326,-5.56699 -3.004,-7.79499c-1.91,-2.529 -4.06999,-5.39799 -4.06999,-10.97098c0,-5.57299 2.162,-8.43999 4.06999,-10.96898c1.678,-2.227 3.004,-3.98599 3.004,-7.79399c0,-1.454 1.181,-2.635 2.635,-2.635c1.455,0 2.636,1.179 2.636,2.635c0,5.57299 -2.162,8.43999 -4.06799,10.96898c-1.68,2.229 -3.007,3.98699 -3.007,7.79599c0,3.80799 1.327,5.56699 3.005,7.79499c1.908,2.529 4.06999,5.39399 4.06999,10.96898c0,5.57099 -2.164,8.43599 -4.06999,10.96298c-1.678,2.225 -3.005,3.98399 -3.005,7.78799c0,1.454 -1.179,2.635 -2.635,2.635c-1.454,0 -2.635,-1.179 -2.635,-2.635c0,-5.57099 2.164,-8.43599 4.06999,-10.96298c1.678,-2.225 3.004,-3.98299 3.004,-7.78799z" fill="#e03c31"/><path d="M259.52502,177.5129c-1.454,0 -2.635,-1.179 -2.635,-2.635c0,-5.57099 2.163,-8.43599 4.06999,-10.96498c1.678,-2.225 3.004,-3.98299 3.004,-7.78799c0,-3.80799 -1.326,-5.56699 -3.004,-7.79499c-1.909,-2.529 -4.06999,-5.39599 -4.06999,-10.96898c0,-5.57299 2.161,-8.43999 4.06999,-10.96898c1.678,-2.227 3.004,-3.98599 3.004,-7.79399c0,-1.454 1.181,-2.635 2.635,-2.635c1.454,0 2.635,1.179 2.635,2.635c0,5.57299 -2.161,8.43999 -4.06699,10.96898c-1.68,2.229 -3.007,3.98699 -3.007,7.79599c0,3.80799 1.327,5.56699 3.005,7.79499c1.908,2.529 4.06899,5.39399 4.06899,10.96898c0,5.57099 -2.163,8.43599 -4.06899,10.96298c-1.678,2.225 -3.005,3.98299 -3.005,7.78799c0,1.454 -1.179,2.635 -2.635,2.635z" fill="#e03c31"/><path d="M287.83798,156.12694c0,-3.80799 -1.327,-5.56699 -3.005,-7.79499c-1.91,-2.529 -4.06899,-5.39799 -4.06899,-10.97098c0,-5.57299 2.161,-8.43999 4.06899,-10.96898c1.678,-2.227 3.005,-3.98599 3.005,-7.79399c0,-1.454 1.179,-2.635 2.635,-2.635c1.454,0 2.635,1.179 2.635,2.635c0,5.57299 -2.161,8.43999 -4.06799,10.96898c-1.68,2.229 -3.006,3.98699 -3.006,7.79599c0,3.80799 1.326,5.56699 3.005,7.79499c1.908,2.529 4.06899,5.39399 4.06899,10.96898c0,5.57099 -2.163,8.43599 -4.06899,10.96298c-1.679,2.225 -3.005,3.98299 -3.005,7.78799c0,1.454 -1.179,2.635 -2.635,2.635c-1.454,0 -2.635,-1.179 -2.635,-2.635c0,-5.57099 2.163,-8.43599 4.06899,-10.96298c1.678,-2.225 3.005,-3.98399 3.005,-7.78799z" fill="#e03c31"/><path d="M318.03093,218.51384c-0.67,0.808 -1.66,1.276 -2.71,1.276h-80.64187c-1.05,0 -2.04,-0.47 -2.712,-1.276c-0.666,-0.807 -0.938,-1.872 -0.741,-2.9c0.061,-0.315 6.45099,-31.42195 43.77193,-31.42195c37.32294,0 43.71293,31.10695 43.77393,31.42195c0.199,1.028 -0.073,2.093 -0.741,2.9zM294.08897,195.18087c-4.93499,-2.368 -11.16398,-3.95999 -19.08897,-3.95999c-23.83596,0 -32.61195,14.23098 -35.54794,21.53997h23.29196c-0.635,-0.7 -1.034,-1.62 -1.034,-2.638c0,-2.173 1.769,-3.94099 3.93999,-3.94099c2.172,0 3.93999,1.766 3.93999,3.94099c0,1.018 -0.397,1.938 -1.033,2.638h29.75495c-0.635,-0.7 -1.034,-1.62 -1.034,-2.638c0,-2.173 1.767,-3.94099 3.93999,-3.94099c2.173,0 3.94199,1.766 3.94199,3.94099c0,1.018 -0.397,1.938 -1.034,2.638h6.42199c-1.542,-3.83999 -4.72599,-9.57798 -10.82898,-14.17098c0.002,0.044 0.013,0.085 0.013,0.128c0,2.172 -1.766,3.93999 -3.93999,3.93999c-2.171,0 -3.93999,-1.766 -3.93999,-3.93999c0,-1.56 0.918,-2.898 2.237,-3.53699zM295.79197,198.28987c-0.235,0 -0.426,0.19 -0.426,0.426c0,0.47 0.851,0.47 0.851,0c0,-0.234 -0.191,-0.424 -0.425,-0.426zM265.65001,209.69485c-0.236,0 -0.426,0.191 -0.426,0.426c0,0.47 0.851,0.47 0.853,0c0,-0.233 -0.191,-0.426 -0.427,-0.426zM301.21796,209.69485c-0.236,0 -0.426,0.191 -0.426,0.426c0,0.47 0.852,0.47 0.852,0c0,-0.233 -0.19,-0.426 -0.426,-0.426z" fill="#ffb25b"/><path d="M261.28202,194.77587c2.173,0 3.94199,1.767 3.94199,3.93999c0,2.174 -1.769,3.94199 -3.94199,3.93999c-2.172,0 -3.93999,-1.766 -3.93999,-3.93999c0,-2.171 1.766,-3.93999 3.93999,-3.93999zM261.28202,198.28987c-0.236,0 -0.427,0.19 -0.427,0.426c0,0.472 0.853,0.472 0.853,0c0,-0.236 -0.19,-0.426 -0.426,-0.426z" fill="#e03c31"/><path d="M245.27205,206.35786c0,-2.173 1.767,-3.94199 3.94199,-3.94199c2.174,0 3.94199,1.767 3.93999,3.94199c0,2.172 -1.766,3.93999 -3.93999,3.93999c-2.173,0 -3.94199,-1.766 -3.94199,-3.93999zM249.21404,205.93186c-0.234,0 -0.426,0.191 -0.426,0.426c0,0.47 0.853,0.47 0.853,0c0,-0.233 -0.191,-0.426 -0.427,-0.426z" fill="#e03c31"/><path d="M287.98098,206.35786c0,2.172 -1.766,3.93999 -3.94199,3.93999c-2.173,0 -3.94199,-1.768 -3.93999,-3.93999c0,-2.173 1.767,-3.94199 3.93999,-3.94199c2.174,0 3.94199,1.767 3.94199,3.94199zM284.46599,206.35586c0,-0.233 -0.191,-0.426 -0.427,-0.426c-0.235,0 -0.426,0.193 -0.426,0.426c0,0.47 0.853,0.47 0.853,0z" fill="#e03c31"/><path d="M231.16307,233.52381c0,-5.25499 4.27599,-9.53099 9.53099,-9.53099h68.61189c5.25499,0 9.53099,4.27599 9.53099,9.53099v5.48599c0,5.25499 -4.27599,9.53099 -9.53099,9.53099h-68.61189c-5.25499,0 -9.53099,-4.27599 -9.53099,-9.53099zM309.30795,241.5098c1.378,0 2.5,-1.122 2.5,-2.5h-0.002v-5.48599c0,-1.378 -1.122,-2.5 -2.5,-2.5h-68.61189c-1.378,0 -2.5,1.122 -2.5,2.5v5.48599c0,1.378 1.122,2.5 2.5,2.5z" fill="#ffb25b"/><path d="M293.27497,270.99575l-58.36791,-11.48598c-1.777,-0.35 -2.997,-1.989 -2.82,-3.78899c0.175,-1.8 1.688,-3.173 3.49799,-3.173h78.82888c1.599,0 2.996,1.078 3.39899,2.625c0.405,1.546 -0.285,3.171 -1.68,3.95399l-20.45997,11.48498c-0.529,0.297 -1.12,0.45 -1.72,0.45c-0.226,0 -0.454,-0.021 -0.678,-0.066zM293.36197,263.84877l7.60799,-4.27199h-29.31695z" fill="#e03c31"/><path d="M315.32094,263.05077c-1.941,0 -3.51499,1.574 -3.51499,3.51499v5.48499c0,1.377 -1.122,2.499 -2.5,2.499h-68.61189c-1.378,0 -2.5,-1.122 -2.5,-2.499v-5.48499c0,-1.941 -1.574,-3.51499 -3.51499,-3.51499c-1.942,0 -3.51599,1.574 -3.51599,3.51499v5.48499c0,5.25499 4.27599,9.53099 9.53099,9.53099h68.61189c5.25499,0 9.53099,-4.27599 9.53099,-9.53099v-5.48499c0,-1.941 -1.574,-3.51499 -3.51599,-3.51499z" fill="#e03c31"/></g></g></g></g></svg>