<svg xmlns="http://www.w3.org/2000/svg" xmlns:mydata="http://www.w3.org/2000/svg" mydata:companyname="Easy Eats" mydata:companytagline="Seu pedido a um clique" version="1.1" viewBox="120 300 300 100"><g fill="none" fill-rule="none" stroke="none" stroke-width="1" stroke-linecap="butt" stroke-linejoin="miter" stroke-miterlimit="10" stroke-dasharray="" stroke-dashoffset="0" font-family="none" font-weight="none" font-size="none" text-anchor="none" style="mix-blend-mode: normal"><g data-paper-data="{&quot;isGlobalGroup&quot;:true,&quot;bounds&quot;:{&quot;x&quot;:142.6964792225436,&quot;y&quot;:115.00000000000001,&quot;width&quot;:864.6070415549128,&quot;height&quot;:840}}"><g data-paper-data="{&quot;isSecondaryText&quot;:true}" fill="#ffb25b" fill-rule="nonzero"><path d="M192.18278,349.34248l-1.02525,2.99653h2.06914l-1.02059,-2.99653zM195.22125,353.42484c0.02175,0.05592 0.04505,0.11418 0.0699,0.17476c0.02485,0.06058 0.04816,0.12194 0.0699,0.18408c0.02175,0.06214 0.03961,0.12194 0.05359,0.17942c0.01398,0.05748 0.02097,0.10952 0.02097,0.15612c0,0.11495 -0.02097,0.2167 -0.06291,0.30525c-0.04194,0.08854 -0.09864,0.16311 -0.1701,0.22369c-0.07146,0.06058 -0.15456,0.10719 -0.24932,0.13981c-0.09476,0.03262 -0.19495,0.04893 -0.30058,0.04893c-0.12117,0 -0.22524,-0.01709 -0.31224,-0.05126c-0.08699,-0.03418 -0.16466,-0.08854 -0.23301,-0.16311c-0.06835,-0.07456 -0.13126,-0.17165 -0.18874,-0.29126c-0.05748,-0.11961 -0.11884,-0.26641 -0.18408,-0.44039l-0.22369,-0.59185h-2.63769l-0.19107,0.59185c-0.05592,0.17709 -0.11262,0.32622 -0.1701,0.44738c-0.05748,0.12117 -0.12117,0.21825 -0.19107,0.29126c-0.0699,0.07301 -0.1499,0.12583 -0.24,0.15845c-0.0901,0.03262 -0.19573,0.04893 -0.3169,0.04893c-0.10563,0 -0.20583,-0.01631 -0.30058,-0.04893c-0.09476,-0.03262 -0.17787,-0.07922 -0.24932,-0.13981c-0.07146,-0.06058 -0.12816,-0.13515 -0.1701,-0.22369c-0.04194,-0.08854 -0.06291,-0.19029 -0.06291,-0.30525c0,-0.0466 0.00699,-0.09864 0.02097,-0.15612c0.01398,-0.05748 0.03184,-0.11728 0.05359,-0.17942c0.02175,-0.06214 0.04505,-0.1235 0.0699,-0.18408c0.02485,-0.06058 0.04816,-0.11884 0.0699,-0.17476l1.2536,-3.38799c0.11806,-0.3169 0.23068,-0.59729 0.33787,-0.84117c0.10719,-0.24389 0.22524,-0.44971 0.35418,-0.61748c0.12893,-0.16777 0.27728,-0.29437 0.44505,-0.37981c0.16777,-0.08544 0.37127,-0.12816 0.61049,-0.12816c0.22369,0 0.41476,0.0334 0.57321,0.10019c0.15845,0.0668 0.30136,0.17709 0.42874,0.33088c0.12738,0.15379 0.24855,0.35651 0.3635,0.60816c0.11495,0.25165 0.24233,0.56078 0.38214,0.92739z" data-paper-data="{&quot;glyphName&quot;:&quot;A&quot;,&quot;glyphIndex&quot;:0,&quot;firstGlyphOfWord&quot;:true,&quot;word&quot;:1}" fill="#e03c31"></path><path d="M200.16628,351.50949c0,-0.56544 0.08311,-1.07108 0.24932,-1.51691c0.16621,-0.44583 0.39845,-0.82253 0.6967,-1.13011c0.29825,-0.30758 0.65321,-0.54292 1.06486,-0.70602c0.41165,-0.16311 0.86292,-0.24466 1.3538,-0.24466c0.38835,0 0.72622,0.02408 1.0136,0.07223c0.28738,0.04816 0.52583,0.11418 0.71535,0.19806c0.18952,0.08388 0.33088,0.1833 0.42408,0.29825c0.0932,0.11495 0.13981,0.23923 0.13981,0.37282c0,0.0901 -0.01864,0.16855 -0.05592,0.23534c-0.03728,0.0668 -0.08621,0.12194 -0.1468,0.16544c-0.06058,0.0435 -0.12816,0.07534 -0.20272,0.09553c-0.07456,0.02019 -0.14913,0.03029 -0.22369,0.03029c-0.0435,0 -0.08699,-0.00078 -0.13049,-0.00233c-0.0435,-0.00155 -0.08544,-0.00854 -0.12583,-0.02097c-0.11806,-0.03107 -0.23068,-0.06136 -0.33787,-0.09087c-0.10719,-0.02951 -0.21282,-0.05515 -0.3169,-0.07689c-0.10408,-0.02175 -0.20816,-0.03961 -0.31224,-0.05359c-0.10408,-0.01398 -0.21204,-0.02097 -0.32389,-0.02097c-0.23301,0 -0.45282,0.03495 -0.65942,0.10486c-0.2066,0.0699 -0.38602,0.1934 -0.53826,0.37049c-0.15223,0.17709 -0.27262,0.41709 -0.36117,0.72001c-0.08854,0.30292 -0.13282,0.68894 -0.13282,1.15807c0,0.36039 0.03573,0.68428 0.10719,0.97166c0.07146,0.28738 0.17787,0.53127 0.31923,0.73166c0.14136,0.20039 0.31845,0.35418 0.53127,0.46136c0.21282,0.10719 0.46059,0.16078 0.74331,0.16078c0.11495,0 0.23456,-0.01243 0.35884,-0.03728c0.12427,-0.02485 0.25165,-0.0567 0.38214,-0.09553c0.13049,-0.03884 0.2633,-0.08311 0.39845,-0.13282c0.13515,-0.04971 0.26952,-0.09942 0.40311,-0.14913c0.04039,-0.01243 0.0901,-0.01864 0.14913,-0.01864c0.07767,0 0.14835,0.01476 0.21204,0.04427c0.06369,0.02951 0.11884,0.06913 0.16544,0.11884c0.0466,0.04971 0.08233,0.10796 0.10719,0.17476c0.02485,0.0668 0.03728,0.13748 0.03728,0.21204c0,0.12117 -0.03961,0.23223 -0.11884,0.33321c-0.07922,0.10097 -0.18408,0.19185 -0.31457,0.27262c-0.13049,0.08078 -0.28039,0.15146 -0.44971,0.21204c-0.16932,0.06058 -0.34408,0.11107 -0.52428,0.15146c-0.1802,0.04039 -0.35961,0.07068 -0.53826,0.09087c-0.17864,0.02019 -0.34408,0.03029 -0.49631,0.03029c-0.45981,0 -0.88855,-0.07689 -1.28622,-0.23068c-0.39767,-0.15379 -0.74253,-0.37903 -1.03457,-0.67573c-0.29204,-0.2967 -0.52195,-0.66175 -0.68971,-1.09515c-0.16777,-0.4334 -0.25165,-0.92972 -0.25165,-1.48894z" data-paper-data="{&quot;glyphName&quot;:&quot;C&quot;,&quot;glyphIndex&quot;:1,&quot;word&quot;:1}" fill="#e03c31"></path><path d="M212.61095,354.83689c-0.15845,0 -0.29126,-0.03262 -0.39845,-0.09786c-0.10719,-0.06524 -0.1934,-0.1499 -0.25864,-0.25398c-0.06524,-0.10408 -0.11185,-0.22136 -0.13981,-0.35185c-0.02796,-0.13049 -0.04194,-0.26097 -0.04194,-0.39146v-4.4412c0,-0.17709 0.01087,-0.34097 0.03262,-0.49165c0.02175,-0.15068 0.0699,-0.28039 0.14447,-0.38913c0.07456,-0.10874 0.1833,-0.19418 0.32622,-0.25631c0.14291,-0.06214 0.33554,-0.0932 0.57787,-0.0932h2.99187c0.0901,0 0.17476,0.01631 0.25398,0.04893c0.07922,0.03262 0.14835,0.07612 0.20738,0.13049c0.05903,0.05437 0.10563,0.11884 0.13981,0.1934c0.03418,0.07456 0.05126,0.15379 0.05126,0.23767c0,0.08388 -0.01709,0.16233 -0.05126,0.23534c-0.03418,0.07301 -0.08078,0.1367 -0.13981,0.19107c-0.05903,0.05437 -0.12816,0.09709 -0.20738,0.12816c-0.07922,0.03107 -0.16388,0.0466 -0.25398,0.0466h-2.40002v1.50991h2.19031c0.0901,0 0.17476,0.01553 0.25398,0.0466c0.07922,0.03107 0.14835,0.07456 0.20738,0.13049c0.05903,0.05592 0.10563,0.12039 0.13981,0.1934c0.03418,0.07301 0.05126,0.15146 0.05126,0.23534c0,0.08388 -0.01709,0.16233 -0.05126,0.23534c-0.03418,0.07301 -0.08078,0.1367 -0.13981,0.19107c-0.05903,0.05437 -0.12816,0.09709 -0.20738,0.12816c-0.07922,0.03107 -0.16388,0.0466 -0.25398,0.0466h-2.19031v1.63108h2.51652c0.08388,0 0.16233,0.01553 0.23534,0.0466c0.07301,0.03107 0.13748,0.07456 0.1934,0.13049c0.05592,0.05592 0.09942,0.12039 0.13049,0.1934c0.03107,0.07301 0.0466,0.15146 0.0466,0.23534c0,0.08388 -0.01553,0.16233 -0.0466,0.23534c-0.03107,0.07301 -0.07456,0.1367 -0.13049,0.19107c-0.05592,0.05437 -0.12039,0.09709 -0.1934,0.12816c-0.07301,0.03107 -0.15146,0.0466 -0.23534,0.0466z" data-paper-data="{&quot;glyphName&quot;:&quot;E&quot;,&quot;glyphIndex&quot;:2,&quot;word&quot;:1}" fill="#e03c31"></path><path d="M223.41123,349.83646c0,0.14913 0.04971,0.27495 0.14913,0.37748c0.09942,0.10253 0.22913,0.19107 0.38913,0.26563c0.16,0.07456 0.34097,0.13981 0.54292,0.19573c0.20194,0.05592 0.40544,0.1134 0.61049,0.17243c0.32932,0.09942 0.62835,0.20505 0.89709,0.3169c0.26874,0.11185 0.49864,0.24544 0.68971,0.40078c0.19107,0.15534 0.33864,0.33942 0.44272,0.55224c0.10408,0.21282 0.15612,0.46835 0.15612,0.76661c0,0.32622 -0.06447,0.61981 -0.1934,0.88078c-0.12893,0.26097 -0.31457,0.48311 -0.5569,0.66641c-0.24233,0.1833 -0.53515,0.32389 -0.87845,0.42175c-0.3433,0.09786 -0.72933,0.1468 -1.15807,0.1468c-0.22058,0 -0.44272,-0.0132 -0.66641,-0.03961c-0.22369,-0.02641 -0.43962,-0.06447 -0.64777,-0.11418c-0.20816,-0.04971 -0.40389,-0.11029 -0.58719,-0.18175c-0.1833,-0.07146 -0.3433,-0.15223 -0.48,-0.24233c-0.1367,-0.0901 -0.24389,-0.18874 -0.32156,-0.29592c-0.07767,-0.10719 -0.11651,-0.22136 -0.11651,-0.34253c0,-0.07767 0.01631,-0.15379 0.04893,-0.22835c0.03262,-0.07456 0.07456,-0.14214 0.12583,-0.20272c0.05126,-0.06058 0.10874,-0.10952 0.17243,-0.1468c0.06369,-0.03728 0.1266,-0.05592 0.18874,-0.05592c0.05592,0 0.11029,0.00932 0.16311,0.02796c0.05282,0.01864 0.10641,0.04117 0.16078,0.06757c0.05437,0.02641 0.11029,0.05515 0.16777,0.08621c0.05748,0.03107 0.11884,0.05903 0.18408,0.08388c0.21437,0.09631 0.45515,0.1833 0.72234,0.26097c0.26719,0.07767 0.5468,0.11651 0.83884,0.11651c0.15845,0 0.30835,-0.01476 0.44971,-0.04427c0.14136,-0.02951 0.26563,-0.07456 0.37282,-0.13515c0.10719,-0.06058 0.19185,-0.13903 0.25398,-0.23534c0.06214,-0.09631 0.0932,-0.21282 0.0932,-0.34952c0,-0.10253 -0.01864,-0.19418 -0.05592,-0.27495c-0.03728,-0.08078 -0.08854,-0.15146 -0.15379,-0.21204c-0.06524,-0.06058 -0.14136,-0.1134 -0.22835,-0.15845c-0.08699,-0.04505 -0.17864,-0.08466 -0.27495,-0.11884l-0.20971,-0.07456c-0.04039,-0.01243 -0.07922,-0.02563 -0.11651,-0.03961c-0.03728,-0.01398 -0.07767,-0.02718 -0.12117,-0.03961l-0.24233,-0.0699c-0.05282,-0.01243 -0.09786,-0.02408 -0.13515,-0.03495c-0.03728,-0.01087 -0.07068,-0.02175 -0.10019,-0.03262c-0.02951,-0.01087 -0.05825,-0.02175 -0.08621,-0.03262c-0.02796,-0.01087 -0.06058,-0.02252 -0.09786,-0.03495l-0.43806,-0.15379c-0.28272,-0.10253 -0.52505,-0.20971 -0.727,-0.32156c-0.20194,-0.11185 -0.3666,-0.23767 -0.49398,-0.37748c-0.12738,-0.13981 -0.22136,-0.29903 -0.28194,-0.47767c-0.06058,-0.17864 -0.09087,-0.38602 -0.09087,-0.62214c0,-0.31068 0.06447,-0.59185 0.1934,-0.8435c0.12893,-0.25165 0.31379,-0.46602 0.55457,-0.64311c0.24078,-0.17709 0.53282,-0.31379 0.87612,-0.4101c0.3433,-0.09631 0.72933,-0.14447 1.15807,-0.14447c0.15534,0 0.32466,0.0101 0.50797,0.03029c0.1833,0.02019 0.3666,0.05049 0.54991,0.09087c0.1833,0.04039 0.35961,0.09243 0.52894,0.15612c0.16932,0.06369 0.31923,0.13825 0.44971,0.22369c0.13049,0.08544 0.23534,0.18253 0.31457,0.29126c0.07922,0.10874 0.11884,0.2299 0.11884,0.3635c0,0.07767 -0.01476,0.14913 -0.04427,0.21437c-0.02951,0.06524 -0.06913,0.12117 -0.11884,0.16777c-0.04971,0.0466 -0.10796,0.08311 -0.17476,0.10952c-0.0668,0.02641 -0.13592,0.03961 -0.20738,0.03961c-0.0932,0 -0.17864,-0.02019 -0.25631,-0.06058c-0.14602,-0.07456 -0.28194,-0.13825 -0.40777,-0.19107c-0.12583,-0.05282 -0.25088,-0.09631 -0.37515,-0.13049c-0.12427,-0.03418 -0.25243,-0.05903 -0.38447,-0.07456c-0.13204,-0.01553 -0.27728,-0.0233 -0.43573,-0.0233c-0.14913,0 -0.29592,0.0132 -0.44039,0.03961c-0.14447,0.02641 -0.2734,0.06835 -0.3868,0.12583c-0.1134,0.05748 -0.20505,0.13126 -0.27495,0.22136c-0.0699,0.0901 -0.10486,0.20039 -0.10486,0.33088z" data-paper-data="{&quot;glyphName&quot;:&quot;S&quot;,&quot;glyphIndex&quot;:3,&quot;word&quot;:1}" fill="#e03c31"></path><path d="M234.18222,349.83646c0,0.14913 0.04971,0.27495 0.14913,0.37748c0.09942,0.10253 0.22913,0.19107 0.38913,0.26563c0.16,0.07456 0.34097,0.13981 0.54292,0.19573c0.20194,0.05592 0.40544,0.1134 0.61049,0.17243c0.32932,0.09942 0.62835,0.20505 0.89709,0.3169c0.26874,0.11185 0.49864,0.24544 0.68971,0.40078c0.19107,0.15534 0.33864,0.33942 0.44272,0.55224c0.10408,0.21282 0.15612,0.46835 0.15612,0.76661c0,0.32622 -0.06447,0.61981 -0.1934,0.88078c-0.12893,0.26097 -0.31457,0.48311 -0.5569,0.66641c-0.24233,0.1833 -0.53515,0.32389 -0.87845,0.42175c-0.3433,0.09786 -0.72933,0.1468 -1.15807,0.1468c-0.22058,0 -0.44272,-0.0132 -0.66641,-0.03961c-0.22369,-0.02641 -0.43962,-0.06447 -0.64777,-0.11418c-0.20816,-0.04971 -0.40389,-0.11029 -0.58719,-0.18175c-0.1833,-0.07146 -0.3433,-0.15223 -0.48,-0.24233c-0.1367,-0.0901 -0.24389,-0.18874 -0.32156,-0.29592c-0.07767,-0.10719 -0.11651,-0.22136 -0.11651,-0.34253c0,-0.07767 0.01631,-0.15379 0.04893,-0.22835c0.03262,-0.07456 0.07456,-0.14214 0.12583,-0.20272c0.05126,-0.06058 0.10874,-0.10952 0.17243,-0.1468c0.06369,-0.03728 0.1266,-0.05592 0.18874,-0.05592c0.05592,0 0.11029,0.00932 0.16311,0.02796c0.05282,0.01864 0.10641,0.04117 0.16078,0.06757c0.05437,0.02641 0.11029,0.05515 0.16777,0.08621c0.05748,0.03107 0.11884,0.05903 0.18408,0.08388c0.21437,0.09631 0.45515,0.1833 0.72234,0.26097c0.26719,0.07767 0.5468,0.11651 0.83884,0.11651c0.15845,0 0.30835,-0.01476 0.44971,-0.04427c0.14136,-0.02951 0.26563,-0.07456 0.37282,-0.13515c0.10719,-0.06058 0.19185,-0.13903 0.25398,-0.23534c0.06214,-0.09631 0.0932,-0.21282 0.0932,-0.34952c0,-0.10253 -0.01864,-0.19418 -0.05592,-0.27495c-0.03728,-0.08078 -0.08854,-0.15146 -0.15379,-0.21204c-0.06524,-0.06058 -0.14136,-0.1134 -0.22835,-0.15845c-0.08699,-0.04505 -0.17864,-0.08466 -0.27495,-0.11884l-0.20971,-0.07456c-0.04039,-0.01243 -0.07922,-0.02563 -0.11651,-0.03961c-0.03728,-0.01398 -0.07767,-0.02718 -0.12117,-0.03961l-0.24233,-0.0699c-0.05282,-0.01243 -0.09786,-0.02408 -0.13515,-0.03495c-0.03728,-0.01087 -0.07068,-0.02175 -0.10019,-0.03262c-0.02951,-0.01087 -0.05825,-0.02175 -0.08621,-0.03262c-0.02796,-0.01087 -0.06058,-0.02252 -0.09786,-0.03495l-0.43806,-0.15379c-0.28272,-0.10253 -0.52505,-0.20971 -0.727,-0.32156c-0.20194,-0.11185 -0.3666,-0.23767 -0.49398,-0.37748c-0.12738,-0.13981 -0.22136,-0.29903 -0.28194,-0.47767c-0.06058,-0.17864 -0.09087,-0.38602 -0.09087,-0.62214c0,-0.31068 0.06447,-0.59185 0.1934,-0.8435c0.12893,-0.25165 0.31379,-0.46602 0.55457,-0.64311c0.24078,-0.17709 0.53282,-0.31379 0.87612,-0.4101c0.3433,-0.09631 0.72933,-0.14447 1.15807,-0.14447c0.15534,0 0.32466,0.0101 0.50797,0.03029c0.1833,0.02019 0.3666,0.05049 0.54991,0.09087c0.1833,0.04039 0.35961,0.09243 0.52894,0.15612c0.16932,0.06369 0.31923,0.13825 0.44971,0.22369c0.13049,0.08544 0.23534,0.18253 0.31457,0.29126c0.07922,0.10874 0.11884,0.2299 0.11884,0.3635c0,0.07767 -0.01476,0.14913 -0.04427,0.21437c-0.02951,0.06524 -0.06913,0.12117 -0.11884,0.16777c-0.04971,0.0466 -0.10796,0.08311 -0.17476,0.10952c-0.0668,0.02641 -0.13592,0.03961 -0.20738,0.03961c-0.0932,0 -0.17864,-0.02019 -0.25631,-0.06058c-0.14602,-0.07456 -0.28194,-0.13825 -0.40777,-0.19107c-0.12583,-0.05282 -0.25088,-0.09631 -0.37515,-0.13049c-0.12427,-0.03418 -0.25243,-0.05903 -0.38447,-0.07456c-0.13204,-0.01553 -0.27728,-0.0233 -0.43573,-0.0233c-0.14913,0 -0.29592,0.0132 -0.44039,0.03961c-0.14447,0.02641 -0.2734,0.06835 -0.3868,0.12583c-0.1134,0.05748 -0.20505,0.13126 -0.27495,0.22136c-0.0699,0.0901 -0.10486,0.20039 -0.10486,0.33088z" data-paper-data="{&quot;glyphName&quot;:&quot;S&quot;,&quot;glyphIndex&quot;:4,&quot;word&quot;:1}" fill="#e03c31"></path><path d="M245.1942,351.45822c0,0.77049 0.12272,1.35224 0.36816,1.74526c0.24544,0.39301 0.62913,0.58952 1.15108,0.58952c0.51263,0 0.89476,-0.19573 1.14642,-0.58719c0.25165,-0.39146 0.37748,-0.97399 0.37748,-1.74759c0,-0.37282 -0.03029,-0.70447 -0.09087,-0.99496c-0.06058,-0.29049 -0.15301,-0.53515 -0.27728,-0.73399c-0.12427,-0.19884 -0.28194,-0.35029 -0.47301,-0.45437c-0.19107,-0.10408 -0.41864,-0.15612 -0.68272,-0.15612c-0.26097,0 -0.48699,0.05204 -0.67806,0.15612c-0.19107,0.10408 -0.34874,0.25554 -0.47301,0.45437c-0.12427,0.19884 -0.2167,0.4435 -0.27728,0.73399c-0.06058,0.29049 -0.09087,0.62214 -0.09087,0.99496zM243.38137,351.45822c0,-0.51263 0.06913,-0.98642 0.20738,-1.42137c0.13825,-0.43495 0.34563,-0.80933 0.62214,-1.12312c0.27651,-0.31379 0.62292,-0.55923 1.03923,-0.73632c0.41631,-0.17709 0.90408,-0.26563 1.46331,-0.26563c0.54369,0 1.0237,0.08544 1.44001,0.25631c0.41631,0.17088 0.76428,0.41243 1.04389,0.72467c0.27961,0.31224 0.49088,0.68583 0.63379,1.12079c0.14291,0.43495 0.21437,0.91651 0.21437,1.44467c0,0.51884 -0.0699,0.99574 -0.20971,1.43069c-0.13981,0.43495 -0.34952,0.80855 -0.62913,1.12079c-0.27961,0.31224 -0.62758,0.55534 -1.04389,0.72933c-0.41631,0.17398 -0.89942,0.26097 -1.44933,0.26097c-0.53748,0 -1.0136,-0.08388 -1.42836,-0.25165c-0.41476,-0.16777 -0.7635,-0.40622 -1.04622,-0.71535c-0.28272,-0.30913 -0.49631,-0.68117 -0.64078,-1.11613c-0.14447,-0.43495 -0.2167,-0.92117 -0.2167,-1.45865z" data-paper-data="{&quot;glyphName&quot;:&quot;O&quot;,&quot;glyphIndex&quot;:5,&quot;lastGlyphOfWord&quot;:true,&quot;word&quot;:1}" fill="#e03c31"></path><path d="M264.63778,349.34248l-1.02525,2.99653h2.06914l-1.02059,-2.99653zM267.67625,353.42484c0.02175,0.05592 0.04505,0.11418 0.0699,0.17476c0.02485,0.06058 0.04816,0.12194 0.0699,0.18408c0.02175,0.06214 0.03961,0.12194 0.05359,0.17942c0.01398,0.05748 0.02097,0.10952 0.02097,0.15612c0,0.11495 -0.02097,0.2167 -0.06291,0.30525c-0.04194,0.08854 -0.09864,0.16311 -0.1701,0.22369c-0.07146,0.06058 -0.15456,0.10719 -0.24932,0.13981c-0.09476,0.03262 -0.19495,0.04893 -0.30058,0.04893c-0.12117,0 -0.22524,-0.01709 -0.31224,-0.05126c-0.08699,-0.03418 -0.16466,-0.08854 -0.23301,-0.16311c-0.06835,-0.07456 -0.13126,-0.17165 -0.18874,-0.29126c-0.05748,-0.11961 -0.11884,-0.26641 -0.18408,-0.44039l-0.22369,-0.59185h-2.63769l-0.19107,0.59185c-0.05592,0.17709 -0.11262,0.32622 -0.1701,0.44738c-0.05748,0.12117 -0.12117,0.21825 -0.19107,0.29126c-0.0699,0.07301 -0.1499,0.12583 -0.24,0.15845c-0.0901,0.03262 -0.19573,0.04893 -0.3169,0.04893c-0.10563,0 -0.20583,-0.01631 -0.30058,-0.04893c-0.09476,-0.03262 -0.17787,-0.07922 -0.24932,-0.13981c-0.07146,-0.06058 -0.12816,-0.13515 -0.1701,-0.22369c-0.04194,-0.08854 -0.06291,-0.19029 -0.06291,-0.30525c0,-0.0466 0.00699,-0.09864 0.02097,-0.15612c0.01398,-0.05748 0.03184,-0.11728 0.05359,-0.17942c0.02175,-0.06214 0.04505,-0.1235 0.0699,-0.18408c0.02485,-0.06058 0.04816,-0.11884 0.0699,-0.17476l1.2536,-3.38799c0.11806,-0.3169 0.23068,-0.59729 0.33787,-0.84117c0.10719,-0.24389 0.22524,-0.44971 0.35418,-0.61748c0.12893,-0.16777 0.27728,-0.29437 0.44505,-0.37981c0.16777,-0.08544 0.37127,-0.12816 0.61049,-0.12816c0.22369,0 0.41476,0.0334 0.57321,0.10019c0.15845,0.0668 0.30136,0.17709 0.42874,0.33088c0.12738,0.15379 0.24855,0.35651 0.3635,0.60816c0.11495,0.25165 0.24233,0.56078 0.38214,0.92739z" data-paper-data="{&quot;glyphName&quot;:&quot;A&quot;,&quot;glyphIndex&quot;:6,&quot;firstGlyphOfWord&quot;:true,&quot;word&quot;:2}" fill="#e03c31"></path><path d="M274.90079,351.45822c0,0.77049 0.12272,1.35224 0.36816,1.74526c0.24544,0.39301 0.62913,0.58952 1.15108,0.58952c0.51263,0 0.89476,-0.19573 1.14642,-0.58719c0.25165,-0.39146 0.37748,-0.97399 0.37748,-1.74759c0,-0.37282 -0.03029,-0.70447 -0.09087,-0.99496c-0.06058,-0.29049 -0.15301,-0.53515 -0.27728,-0.73399c-0.12427,-0.19884 -0.28194,-0.35029 -0.47301,-0.45437c-0.19107,-0.10408 -0.41864,-0.15612 -0.68272,-0.15612c-0.26097,0 -0.48699,0.05204 -0.67806,0.15612c-0.19107,0.10408 -0.34874,0.25554 -0.47301,0.45437c-0.12427,0.19884 -0.2167,0.4435 -0.27728,0.73399c-0.06058,0.29049 -0.09087,0.62214 -0.09087,0.99496zM273.08796,351.45822c0,-0.51263 0.06913,-0.98642 0.20738,-1.42137c0.13825,-0.43495 0.34563,-0.80933 0.62214,-1.12312c0.27651,-0.31379 0.62292,-0.55923 1.03923,-0.73632c0.41631,-0.17709 0.90408,-0.26563 1.46331,-0.26563c0.54369,0 1.0237,0.08544 1.44001,0.25631c0.41631,0.17088 0.76428,0.41243 1.04389,0.72467c0.27961,0.31224 0.49088,0.68583 0.63379,1.12079c0.14291,0.43495 0.21437,0.91651 0.21437,1.44467c0,0.51884 -0.0699,0.99574 -0.20971,1.43069c-0.13981,0.43495 -0.34952,0.80855 -0.62913,1.12079c-0.27961,0.31224 -0.62758,0.55534 -1.04389,0.72933c-0.41631,0.17398 -0.89942,0.26097 -1.44933,0.26097c-0.53748,0 -1.0136,-0.08388 -1.42836,-0.25165c-0.41476,-0.16777 -0.7635,-0.40622 -1.04622,-0.71535c-0.28272,-0.30913 -0.49631,-0.68117 -0.64078,-1.11613c-0.14447,-0.43495 -0.2167,-0.92117 -0.2167,-1.45865z" data-paper-data="{&quot;glyphName&quot;:&quot;O&quot;,&quot;glyphIndex&quot;:7,&quot;lastGlyphOfWord&quot;:true,&quot;word&quot;:2}" fill="#e03c31"></path><path d="M293.31978,349.83646c0,0.14913 0.04971,0.27495 0.14913,0.37748c0.09942,0.10253 0.22913,0.19107 0.38913,0.26563c0.16,0.07456 0.34097,0.13981 0.54292,0.19573c0.20194,0.05592 0.40544,0.1134 0.61049,0.17243c0.32932,0.09942 0.62835,0.20505 0.89709,0.3169c0.26874,0.11185 0.49864,0.24544 0.68971,0.40078c0.19107,0.15534 0.33864,0.33942 0.44272,0.55224c0.10408,0.21282 0.15612,0.46835 0.15612,0.76661c0,0.32622 -0.06447,0.61981 -0.1934,0.88078c-0.12893,0.26097 -0.31457,0.48311 -0.5569,0.66641c-0.24233,0.1833 -0.53515,0.32389 -0.87845,0.42175c-0.3433,0.09786 -0.72933,0.1468 -1.15807,0.1468c-0.22058,0 -0.44272,-0.0132 -0.66641,-0.03961c-0.22369,-0.02641 -0.43962,-0.06447 -0.64777,-0.11418c-0.20816,-0.04971 -0.40389,-0.11029 -0.58719,-0.18175c-0.1833,-0.07146 -0.3433,-0.15223 -0.48,-0.24233c-0.1367,-0.0901 -0.24389,-0.18874 -0.32156,-0.29592c-0.07767,-0.10719 -0.11651,-0.22136 -0.11651,-0.34253c0,-0.07767 0.01631,-0.15379 0.04893,-0.22835c0.03262,-0.07456 0.07456,-0.14214 0.12583,-0.20272c0.05126,-0.06058 0.10874,-0.10952 0.17243,-0.1468c0.06369,-0.03728 0.1266,-0.05592 0.18874,-0.05592c0.05592,0 0.11029,0.00932 0.16311,0.02796c0.05282,0.01864 0.10641,0.04117 0.16078,0.06757c0.05437,0.02641 0.11029,0.05515 0.16777,0.08621c0.05748,0.03107 0.11884,0.05903 0.18408,0.08388c0.21437,0.09631 0.45515,0.1833 0.72234,0.26097c0.26719,0.07767 0.5468,0.11651 0.83884,0.11651c0.15845,0 0.30835,-0.01476 0.44971,-0.04427c0.14136,-0.02951 0.26563,-0.07456 0.37282,-0.13515c0.10719,-0.06058 0.19185,-0.13903 0.25398,-0.23534c0.06214,-0.09631 0.0932,-0.21282 0.0932,-0.34952c0,-0.10253 -0.01864,-0.19418 -0.05592,-0.27495c-0.03728,-0.08078 -0.08854,-0.15146 -0.15379,-0.21204c-0.06524,-0.06058 -0.14136,-0.1134 -0.22835,-0.15845c-0.08699,-0.04505 -0.17864,-0.08466 -0.27495,-0.11884l-0.20971,-0.07456c-0.04039,-0.01243 -0.07922,-0.02563 -0.11651,-0.03961c-0.03728,-0.01398 -0.07767,-0.02718 -0.12117,-0.03961l-0.24233,-0.0699c-0.05282,-0.01243 -0.09786,-0.02408 -0.13515,-0.03495c-0.03728,-0.01087 -0.07068,-0.02175 -0.10019,-0.03262c-0.02951,-0.01087 -0.05825,-0.02175 -0.08621,-0.03262c-0.02796,-0.01087 -0.06058,-0.02252 -0.09786,-0.03495l-0.43806,-0.15379c-0.28272,-0.10253 -0.52505,-0.20971 -0.727,-0.32156c-0.20194,-0.11185 -0.3666,-0.23767 -0.49398,-0.37748c-0.12738,-0.13981 -0.22136,-0.29903 -0.28194,-0.47767c-0.06058,-0.17864 -0.09087,-0.38602 -0.09087,-0.62214c0,-0.31068 0.06447,-0.59185 0.1934,-0.8435c0.12893,-0.25165 0.31379,-0.46602 0.55457,-0.64311c0.24078,-0.17709 0.53282,-0.31379 0.87612,-0.4101c0.3433,-0.09631 0.72933,-0.14447 1.15807,-0.14447c0.15534,0 0.32466,0.0101 0.50797,0.03029c0.1833,0.02019 0.3666,0.05049 0.54991,0.09087c0.1833,0.04039 0.35961,0.09243 0.52894,0.15612c0.16932,0.06369 0.31923,0.13825 0.44971,0.22369c0.13049,0.08544 0.23534,0.18253 0.31457,0.29126c0.07922,0.10874 0.11884,0.2299 0.11884,0.3635c0,0.07767 -0.01476,0.14913 -0.04427,0.21437c-0.02951,0.06524 -0.06913,0.12117 -0.11884,0.16777c-0.04971,0.0466 -0.10796,0.08311 -0.17476,0.10952c-0.0668,0.02641 -0.13592,0.03961 -0.20738,0.03961c-0.0932,0 -0.17864,-0.02019 -0.25631,-0.06058c-0.14602,-0.07456 -0.28194,-0.13825 -0.40777,-0.19107c-0.12583,-0.05282 -0.25088,-0.09631 -0.37515,-0.13049c-0.12427,-0.03418 -0.25243,-0.05903 -0.38447,-0.07456c-0.13204,-0.01553 -0.27728,-0.0233 -0.43573,-0.0233c-0.14913,0 -0.29592,0.0132 -0.44039,0.03961c-0.14447,0.02641 -0.2734,0.06835 -0.3868,0.12583c-0.1134,0.05748 -0.20505,0.13126 -0.27495,0.22136c-0.0699,0.0901 -0.10486,0.20039 -0.10486,0.33088z" data-paper-data="{&quot;glyphName&quot;:&quot;S&quot;,&quot;glyphIndex&quot;:8,&quot;firstGlyphOfWord&quot;:true,&quot;word&quot;:3}" fill="#e03c31"></path><path d="M303.95032,353.92815c0,0.12738 -0.02252,0.24622 -0.06757,0.35651c-0.04505,0.11029 -0.10719,0.2066 -0.18641,0.28893c-0.07922,0.08233 -0.17088,0.1468 -0.27495,0.1934c-0.10408,0.0466 -0.2167,0.0699 -0.33787,0.0699c-0.12117,0 -0.23379,-0.0233 -0.33787,-0.0699c-0.10408,-0.0466 -0.19495,-0.11107 -0.27262,-0.1934c-0.07767,-0.08233 -0.13903,-0.17864 -0.18408,-0.28893c-0.04505,-0.11029 -0.06757,-0.22913 -0.06757,-0.35651v-4.95383c0,-0.12738 0.02252,-0.24622 0.06757,-0.35651c0.04505,-0.11029 0.10641,-0.2066 0.18408,-0.28893c0.07767,-0.08233 0.16855,-0.1468 0.27262,-0.1934c0.10408,-0.0466 0.2167,-0.0699 0.33787,-0.0699c0.12117,0 0.23379,0.0233 0.33787,0.0699c0.10408,0.0466 0.19573,0.11107 0.27495,0.1934c0.07922,0.08233 0.14136,0.17864 0.18641,0.28893c0.04505,0.11029 0.06757,0.22913 0.06757,0.35651z" data-paper-data="{&quot;glyphName&quot;:&quot;I&quot;,&quot;glyphIndex&quot;:9,&quot;word&quot;:3}" fill="#e03c31"></path><path d="M310.77545,349.83646c0,0.14913 0.04971,0.27495 0.14913,0.37748c0.09942,0.10253 0.22913,0.19107 0.38913,0.26563c0.16,0.07456 0.34097,0.13981 0.54292,0.19573c0.20194,0.05592 0.40544,0.1134 0.61049,0.17243c0.32932,0.09942 0.62835,0.20505 0.89709,0.3169c0.26874,0.11185 0.49864,0.24544 0.68971,0.40078c0.19107,0.15534 0.33864,0.33942 0.44272,0.55224c0.10408,0.21282 0.15612,0.46835 0.15612,0.76661c0,0.32622 -0.06447,0.61981 -0.1934,0.88078c-0.12893,0.26097 -0.31457,0.48311 -0.5569,0.66641c-0.24233,0.1833 -0.53515,0.32389 -0.87845,0.42175c-0.3433,0.09786 -0.72933,0.1468 -1.15807,0.1468c-0.22058,0 -0.44272,-0.0132 -0.66641,-0.03961c-0.22369,-0.02641 -0.43962,-0.06447 -0.64777,-0.11418c-0.20816,-0.04971 -0.40389,-0.11029 -0.58719,-0.18175c-0.1833,-0.07146 -0.3433,-0.15223 -0.48,-0.24233c-0.1367,-0.0901 -0.24389,-0.18874 -0.32156,-0.29592c-0.07767,-0.10719 -0.11651,-0.22136 -0.11651,-0.34253c0,-0.07767 0.01631,-0.15379 0.04893,-0.22835c0.03262,-0.07456 0.07456,-0.14214 0.12583,-0.20272c0.05126,-0.06058 0.10874,-0.10952 0.17243,-0.1468c0.06369,-0.03728 0.1266,-0.05592 0.18874,-0.05592c0.05592,0 0.11029,0.00932 0.16311,0.02796c0.05282,0.01864 0.10641,0.04117 0.16078,0.06757c0.05437,0.02641 0.11029,0.05515 0.16777,0.08621c0.05748,0.03107 0.11884,0.05903 0.18408,0.08388c0.21437,0.09631 0.45515,0.1833 0.72234,0.26097c0.26719,0.07767 0.5468,0.11651 0.83884,0.11651c0.15845,0 0.30835,-0.01476 0.44971,-0.04427c0.14136,-0.02951 0.26563,-0.07456 0.37282,-0.13515c0.10719,-0.06058 0.19185,-0.13903 0.25398,-0.23534c0.06214,-0.09631 0.0932,-0.21282 0.0932,-0.34952c0,-0.10253 -0.01864,-0.19418 -0.05592,-0.27495c-0.03728,-0.08078 -0.08854,-0.15146 -0.15379,-0.21204c-0.06524,-0.06058 -0.14136,-0.1134 -0.22835,-0.15845c-0.08699,-0.04505 -0.17864,-0.08466 -0.27495,-0.11884l-0.20971,-0.07456c-0.04039,-0.01243 -0.07922,-0.02563 -0.11651,-0.03961c-0.03728,-0.01398 -0.07767,-0.02718 -0.12117,-0.03961l-0.24233,-0.0699c-0.05282,-0.01243 -0.09786,-0.02408 -0.13515,-0.03495c-0.03728,-0.01087 -0.07068,-0.02175 -0.10019,-0.03262c-0.02951,-0.01087 -0.05825,-0.02175 -0.08621,-0.03262c-0.02796,-0.01087 -0.06058,-0.02252 -0.09786,-0.03495l-0.43806,-0.15379c-0.28272,-0.10253 -0.52505,-0.20971 -0.727,-0.32156c-0.20194,-0.11185 -0.3666,-0.23767 -0.49398,-0.37748c-0.12738,-0.13981 -0.22136,-0.29903 -0.28194,-0.47767c-0.06058,-0.17864 -0.09087,-0.38602 -0.09087,-0.62214c0,-0.31068 0.06447,-0.59185 0.1934,-0.8435c0.12893,-0.25165 0.31379,-0.46602 0.55457,-0.64311c0.24078,-0.17709 0.53282,-0.31379 0.87612,-0.4101c0.3433,-0.09631 0.72933,-0.14447 1.15807,-0.14447c0.15534,0 0.32466,0.0101 0.50797,0.03029c0.1833,0.02019 0.3666,0.05049 0.54991,0.09087c0.1833,0.04039 0.35961,0.09243 0.52894,0.15612c0.16932,0.06369 0.31923,0.13825 0.44971,0.22369c0.13049,0.08544 0.23534,0.18253 0.31457,0.29126c0.07922,0.10874 0.11884,0.2299 0.11884,0.3635c0,0.07767 -0.01476,0.14913 -0.04427,0.21437c-0.02951,0.06524 -0.06913,0.12117 -0.11884,0.16777c-0.04971,0.0466 -0.10796,0.08311 -0.17476,0.10952c-0.0668,0.02641 -0.13592,0.03961 -0.20738,0.03961c-0.0932,0 -0.17864,-0.02019 -0.25631,-0.06058c-0.14602,-0.07456 -0.28194,-0.13825 -0.40777,-0.19107c-0.12583,-0.05282 -0.25088,-0.09631 -0.37515,-0.13049c-0.12427,-0.03418 -0.25243,-0.05903 -0.38447,-0.07456c-0.13204,-0.01553 -0.27728,-0.0233 -0.43573,-0.0233c-0.14913,0 -0.29592,0.0132 -0.44039,0.03961c-0.14447,0.02641 -0.2734,0.06835 -0.3868,0.12583c-0.1134,0.05748 -0.20505,0.13126 -0.27495,0.22136c-0.0699,0.0901 -0.10486,0.20039 -0.10486,0.33088z" data-paper-data="{&quot;glyphName&quot;:&quot;S&quot;,&quot;glyphIndex&quot;:10,&quot;word&quot;:3}" fill="#e03c31"></path><path d="M319.87608,349.30054c-0.0901,0 -0.17554,-0.01631 -0.25631,-0.04893c-0.08078,-0.03262 -0.15146,-0.07689 -0.21204,-0.13282c-0.06058,-0.05592 -0.10874,-0.12117 -0.14447,-0.19573c-0.03573,-0.07456 -0.05359,-0.15379 -0.05359,-0.23767c0,-0.08388 0.01786,-0.16388 0.05359,-0.24c0.03573,-0.07612 0.08388,-0.14214 0.14447,-0.19806c0.06058,-0.05592 0.13126,-0.10019 0.21204,-0.13282c0.08078,-0.03262 0.16621,-0.04893 0.25631,-0.04893h4.25479c0.0901,0 0.17554,0.01631 0.25631,0.04893c0.08078,0.03262 0.15146,0.07689 0.21204,0.13282c0.06058,0.05592 0.10874,0.12194 0.14447,0.19806c0.03573,0.07612 0.05359,0.15612 0.05359,0.24c0,0.08388 -0.01786,0.16311 -0.05359,0.23767c-0.03573,0.07456 -0.08388,0.13981 -0.14447,0.19573c-0.06058,0.05592 -0.13126,0.10019 -0.21204,0.13282c-0.08078,0.03262 -0.16621,0.04893 -0.25631,0.04893h-1.24894v4.62761c0,0.12738 -0.02252,0.24622 -0.06757,0.35651c-0.04505,0.11029 -0.10719,0.2066 -0.18641,0.28893c-0.07922,0.08233 -0.17088,0.1468 -0.27495,0.1934c-0.10408,0.0466 -0.2167,0.0699 -0.33787,0.0699c-0.12117,0 -0.23379,-0.0233 -0.33787,-0.0699c-0.10408,-0.0466 -0.19495,-0.11107 -0.27262,-0.1934c-0.07767,-0.08233 -0.13903,-0.17864 -0.18408,-0.28893c-0.04505,-0.11029 -0.06757,-0.22913 -0.06757,-0.35651v-4.62761z" data-paper-data="{&quot;glyphName&quot;:&quot;T&quot;,&quot;glyphIndex&quot;:11,&quot;word&quot;:3}" fill="#e03c31"></path><path d="M330.7243,354.83689c-0.15845,0 -0.29126,-0.03262 -0.39845,-0.09786c-0.10719,-0.06524 -0.1934,-0.1499 -0.25864,-0.25398c-0.06524,-0.10408 -0.11185,-0.22136 -0.13981,-0.35185c-0.02796,-0.13049 -0.04194,-0.26097 -0.04194,-0.39146v-4.4412c0,-0.17709 0.01087,-0.34097 0.03262,-0.49165c0.02175,-0.15068 0.0699,-0.28039 0.14447,-0.38913c0.07456,-0.10874 0.1833,-0.19418 0.32622,-0.25631c0.14291,-0.06214 0.33554,-0.0932 0.57787,-0.0932h2.99187c0.0901,0 0.17476,0.01631 0.25398,0.04893c0.07922,0.03262 0.14835,0.07612 0.20738,0.13049c0.05903,0.05437 0.10563,0.11884 0.13981,0.1934c0.03418,0.07456 0.05126,0.15379 0.05126,0.23767c0,0.08388 -0.01709,0.16233 -0.05126,0.23534c-0.03418,0.07301 -0.08078,0.1367 -0.13981,0.19107c-0.05903,0.05437 -0.12816,0.09709 -0.20738,0.12816c-0.07922,0.03107 -0.16388,0.0466 -0.25398,0.0466h-2.40002v1.50991h2.19031c0.0901,0 0.17476,0.01553 0.25398,0.0466c0.07922,0.03107 0.14835,0.07456 0.20738,0.13049c0.05903,0.05592 0.10563,0.12039 0.13981,0.1934c0.03418,0.07301 0.05126,0.15146 0.05126,0.23534c0,0.08388 -0.01709,0.16233 -0.05126,0.23534c-0.03418,0.07301 -0.08078,0.1367 -0.13981,0.19107c-0.05903,0.05437 -0.12816,0.09709 -0.20738,0.12816c-0.07922,0.03107 -0.16388,0.0466 -0.25398,0.0466h-2.19031v1.63108h2.51652c0.08388,0 0.16233,0.01553 0.23534,0.0466c0.07301,0.03107 0.13748,0.07456 0.1934,0.13049c0.05592,0.05592 0.09942,0.12039 0.13049,0.1934c0.03107,0.07301 0.0466,0.15146 0.0466,0.23534c0,0.08388 -0.01553,0.16233 -0.0466,0.23534c-0.03107,0.07301 -0.07456,0.1367 -0.13049,0.19107c-0.05592,0.05437 -0.12039,0.09709 -0.1934,0.12816c-0.07301,0.03107 -0.15146,0.0466 -0.23534,0.0466z" data-paper-data="{&quot;glyphName&quot;:&quot;E&quot;,&quot;glyphIndex&quot;:12,&quot;word&quot;:3}" fill="#e03c31"></path><path d="M347.24266,349.69666c-0.27651,0.6835 -0.5235,1.29244 -0.74098,1.82681c-0.0932,0.2299 -0.1833,0.4536 -0.27029,0.67107c-0.08699,0.21748 -0.16544,0.41165 -0.23534,0.58253c-0.0699,0.17088 -0.1266,0.30913 -0.1701,0.41476l-0.06058,0.15379c-0.06524,0.15845 -0.13437,0.30913 -0.20738,0.45204c-0.07301,0.14291 -0.15612,0.26796 -0.24932,0.37515c-0.0932,0.10719 -0.19806,0.19262 -0.31457,0.25631c-0.11651,0.06369 -0.25088,0.09553 -0.40311,0.09553c-0.13981,0 -0.26253,-0.02408 -0.36816,-0.07223c-0.10563,-0.04816 -0.20272,-0.12117 -0.29126,-0.21903c-0.08854,-0.09786 -0.17165,-0.22058 -0.24932,-0.36816c-0.07767,-0.14757 -0.15534,-0.31923 -0.23301,-0.51496l-1.46797,-3.63498v4.44586c0,0.0932 -0.01786,0.18175 -0.05359,0.26563c-0.03573,0.08388 -0.08466,0.15612 -0.1468,0.2167c-0.06214,0.06058 -0.13515,0.10874 -0.21903,0.14447c-0.08388,0.03573 -0.17243,0.05359 -0.26563,0.05359c-0.0932,0 -0.18175,-0.01786 -0.26563,-0.05359c-0.08388,-0.03573 -0.15612,-0.08388 -0.2167,-0.14447c-0.06058,-0.06058 -0.10874,-0.13282 -0.14447,-0.2167c-0.03573,-0.08388 -0.05359,-0.17243 -0.05359,-0.26563v-4.30139c0,-0.27029 0.01398,-0.51651 0.04194,-0.73865c0.02796,-0.22214 0.08466,-0.41088 0.1701,-0.56622c0.08544,-0.15534 0.20505,-0.27573 0.35884,-0.36117c0.15379,-0.08544 0.35651,-0.12816 0.60816,-0.12816c0.1802,0 0.33787,0.03107 0.47301,0.0932c0.13515,0.06214 0.26097,0.16233 0.37748,0.30058c0.11651,0.13825 0.2299,0.31767 0.3402,0.53826c0.11029,0.22058 0.23068,0.48777 0.36117,0.80156l1.24428,3.00585h0.03728l1.25826,-3.00585c0.11185,-0.26719 0.22136,-0.50797 0.32855,-0.72234c0.10719,-0.21437 0.22136,-0.39612 0.34253,-0.54525c0.12117,-0.14913 0.25321,-0.26408 0.39612,-0.34486c0.14291,-0.08078 0.30602,-0.12117 0.48932,-0.12117c0.19884,0 0.37204,0.02951 0.51962,0.08854c0.14757,0.05903 0.26874,0.15379 0.3635,0.28427c0.09476,0.13049 0.16544,0.29903 0.21204,0.50564c0.0466,0.2066 0.0699,0.45593 0.0699,0.74797v4.46916c0,0.0932 -0.01786,0.18175 -0.05359,0.26563c-0.03573,0.08388 -0.08466,0.15612 -0.1468,0.2167c-0.06214,0.06058 -0.13515,0.10874 -0.21903,0.14447c-0.08388,0.03573 -0.17243,0.05359 -0.26563,0.05359c-0.0932,0 -0.18175,-0.01786 -0.26563,-0.05359c-0.08388,-0.03573 -0.15612,-0.08388 -0.2167,-0.14447c-0.06058,-0.06058 -0.10874,-0.13282 -0.14447,-0.2167c-0.03573,-0.08388 -0.05359,-0.17243 -0.05359,-0.26563z" data-paper-data="{&quot;glyphName&quot;:&quot;M&quot;,&quot;glyphIndex&quot;:13,&quot;word&quot;:3}" fill="#e03c31"></path><path d="M357.76596,349.34248l-1.02525,2.99653h2.06914l-1.02059,-2.99653zM360.80443,353.42484c0.02175,0.05592 0.04505,0.11418 0.0699,0.17476c0.02485,0.06058 0.04816,0.12194 0.0699,0.18408c0.02175,0.06214 0.03961,0.12194 0.05359,0.17942c0.01398,0.05748 0.02097,0.10952 0.02097,0.15612c0,0.11495 -0.02097,0.2167 -0.06291,0.30525c-0.04194,0.08854 -0.09864,0.16311 -0.1701,0.22369c-0.07146,0.06058 -0.15456,0.10719 -0.24932,0.13981c-0.09476,0.03262 -0.19495,0.04893 -0.30058,0.04893c-0.12117,0 -0.22524,-0.01709 -0.31224,-0.05126c-0.08699,-0.03418 -0.16466,-0.08854 -0.23301,-0.16311c-0.06835,-0.07456 -0.13126,-0.17165 -0.18874,-0.29126c-0.05748,-0.11961 -0.11884,-0.26641 -0.18408,-0.44039l-0.22369,-0.59185h-2.63769l-0.19107,0.59185c-0.05592,0.17709 -0.11262,0.32622 -0.1701,0.44738c-0.05748,0.12117 -0.12117,0.21825 -0.19107,0.29126c-0.0699,0.07301 -0.1499,0.12583 -0.24,0.15845c-0.0901,0.03262 -0.19573,0.04893 -0.3169,0.04893c-0.10563,0 -0.20583,-0.01631 -0.30058,-0.04893c-0.09476,-0.03262 -0.17787,-0.07922 -0.24932,-0.13981c-0.07146,-0.06058 -0.12816,-0.13515 -0.1701,-0.22369c-0.04194,-0.08854 -0.06291,-0.19029 -0.06291,-0.30525c0,-0.0466 0.00699,-0.09864 0.02097,-0.15612c0.01398,-0.05748 0.03184,-0.11728 0.05359,-0.17942c0.02175,-0.06214 0.04505,-0.1235 0.0699,-0.18408c0.02485,-0.06058 0.04816,-0.11884 0.0699,-0.17476l1.2536,-3.38799c0.11806,-0.3169 0.23068,-0.59729 0.33787,-0.84117c0.10719,-0.24389 0.22524,-0.44971 0.35418,-0.61748c0.12893,-0.16777 0.27728,-0.29437 0.44505,-0.37981c0.16777,-0.08544 0.37127,-0.12816 0.61049,-0.12816c0.22369,0 0.41476,0.0334 0.57321,0.10019c0.15845,0.0668 0.30136,0.17709 0.42874,0.33088c0.12738,0.15379 0.24855,0.35651 0.3635,0.60816c0.11495,0.25165 0.24233,0.56078 0.38214,0.92739z" data-paper-data="{&quot;glyphName&quot;:&quot;A&quot;,&quot;glyphIndex&quot;:14,&quot;lastGlyphOfWord&quot;:true,&quot;word&quot;:3}" fill="#e03c31"></path></g><g data-paper-data="{&quot;isPrimaryText&quot;:true}" fill-rule="nonzero"><path d="M146.78017,310.70299v4.08369h-4.08369v8.71188h4.08369v1.63348h-4.08369v8.71188h4.08369v4.12259h20.69071v-6.5728h-22.2853v-3.77255h1.59459v2.72246h2.48911v-6.84505h10.50093v1.63348h-9.45083v2.48911h11.93994v-6.5728h-17.07373v-3.77255h1.59459v2.72246h2.48911v-6.84505h15.7125v1.63348h-14.6624v2.48911h17.15151v-6.5728zM164.98178,333.84392v1.63348h-15.7125v-1.63348z" data-paper-data="{&quot;glyphName&quot;:&quot;E&quot;,&quot;glyphIndex&quot;:0,&quot;firstGlyphOfWord&quot;:true,&quot;word&quot;:1}" fill="#e03c31"/><path d="M193.87877,330.26582l1.0112,2.48911h0.66117l1.20566,2.72246h-1.78905l-2.99471,-6.88394h4.5504l-7.93403,-17.81268l-2.13908,4.90043l-2.13908,-4.97822l-7.89514,17.89047h4.47262l-0.73895,1.63348h-4.47262l-3.38363,7.73957h7.23397l1.82794,-4.20037h-2.72246l-0.73895,1.71126h-1.78905l1.20566,-2.76135h13.76788l2.25575,5.25046h7.23397l-3.38363,-7.70068zM184.27237,316.88686l0.81674,1.94462l-3.15028,7.27286h-1.71126zM184.70018,328.59345h4.58929l0.73895,1.67237l-7.15619,-0.03889l3.57809,-8.28406l1.36123,3.15028h2.68357l-2.68357,-6.26166l0.81674,-1.90572l4.08369,9.17859h-6.92283z" data-paper-data="{&quot;glyphName&quot;:&quot;A&quot;,&quot;glyphIndex&quot;:1,&quot;word&quot;:1}" fill="#ffb25b"/><path d="M231.721,328.20453c-0.93342,-4.08369 -3.46142,-2.80025 -18.35717,-9.87865h-2.37243c-0.62228,0 -0.97231,0.15557 -1.28345,0.42782c0.58338,0.66117 1.63348,1.36123 2.25575,1.67237c4.16148,2.0224 14.42905,6.02831 15.168,6.33945c0.89452,0.35003 1.43902,0.58338 1.78905,1.05009c0.58338,0.73895 0.58338,1.86683 -0.19446,2.76135c-0.81674,-1.36123 -1.59459,-1.71126 -2.80025,-2.21686l-15.94585,-6.84505c-1.94462,-0.81674 -1.94462,-3.11139 -0.66117,-3.85034c0.35003,-0.19446 0.93342,-0.42782 1.82794,-0.42782h20.61293v-6.5728h-17.65711c-3.11139,0 -5.40603,1.94462 -5.52271,4.58929c-1.90572,0.89452 -2.95582,2.83914 -2.528,5.17268c0.38892,2.33354 2.91692,3.38363 2.99471,3.38363c0.07778,0.03889 11.00653,4.66708 15.36247,6.61169c0.66117,0.27225 1.40012,0.5056 1.82794,0.93342c1.67237,1.47791 0.27225,4.08369 -2.21686,4.08369h-15.55693v-1.59459h16.99594c0.58338,-0.58338 0.58338,-1.43902 -0.19446,-1.90572c-0.31114,-0.19446 -0.58338,-0.31114 -1.32234,-0.58338h-17.96825v6.5728h18.04604c1.82794,0 3.65588,-0.97231 4.62819,-2.37243c0.46671,-0.70006 0.73895,-1.47791 0.77785,-2.37243c1.75015,-1.05009 2.72246,-2.99471 2.29465,-4.97822zM229.27078,313.1532v1.59459h-18.08493c0.31114,-0.97231 1.40012,-1.59459 2.91692,-1.59459z" data-paper-data="{&quot;glyphName&quot;:&quot;S&quot;,&quot;glyphIndex&quot;:2,&quot;word&quot;:1}" fill="#e03c31"/><path d="M261.24027,313.1532h2.0224l-5.67828,7.27286v4.0448l10.73428,-13.80677h-8.28406l-5.98942,7.66179v5.71717h-1.59459v-5.71717l-5.95052,-7.66179h-8.32296l12.44554,15.86807h3.42252v8.90634h-1.59459v-7.85625h-2.48911v10.34536h6.5728v-18.7461zM243.27202,313.1532h1.98351l4.70597,6.02831v2.56689z" data-paper-data="{&quot;glyphName&quot;:&quot;Y&quot;,&quot;glyphIndex&quot;:3,&quot;lastGlyphOfWord&quot;:true,&quot;word&quot;:1}" fill="#ffb25b"/><path d="M297.0212,310.70299v4.08369h-4.08369v8.71188h4.08369v1.63348h-4.08369v8.71188h4.08369v4.12259h20.69071v-6.5728h-22.2853v-3.77255h1.59459v2.72246h2.48911v-6.84505h10.50093v1.63348h-9.45083v2.48911h11.93994v-6.5728h-17.07373v-3.77255h1.59459v2.72246h2.48911v-6.84505h15.7125v1.63348h-14.6624v2.48911h17.15151v-6.5728zM315.22281,333.84392v1.63348h-15.7125v-1.63348z" data-paper-data="{&quot;glyphName&quot;:&quot;E&quot;,&quot;glyphIndex&quot;:4,&quot;firstGlyphOfWord&quot;:true,&quot;word&quot;:2}" fill="#e03c31"/><path d="M344.1198,330.26582l1.0112,2.48911h0.66117l1.20566,2.72246h-1.78905l-2.99471,-6.88394h4.5504l-7.93403,-17.81268l-2.13908,4.90043l-2.13908,-4.97822l-7.89514,17.89047h4.47262l-0.73895,1.63348h-4.47262l-3.38363,7.73957h7.23397l1.82794,-4.20037h-2.72246l-0.73895,1.71126h-1.78905l1.20566,-2.76135h13.76788l2.25575,5.25046h7.23397l-3.38363,-7.70068zM334.5134,316.88686l0.81674,1.94462l-3.15028,7.27286h-1.71126zM334.94121,328.59345h4.58929l0.73895,1.67237l-7.15619,-0.03889l3.57809,-8.28406l1.36123,3.15028h2.68357l-2.68357,-6.26166l0.81674,-1.90572l4.08369,9.17859h-6.92283z" data-paper-data="{&quot;glyphName&quot;:&quot;A&quot;,&quot;glyphIndex&quot;:5,&quot;word&quot;:2}" fill="#ffb25b"/><path d="M363.79931,314.78668h-1.63348v-4.12259h-11.6288v6.61169h8.0896v-2.48911h-5.60049v-1.63348h6.65059v24.77441h6.61169v-19.60173h-2.48911v17.11262h-1.63348v-18.16271h13.26228v-6.61169h-11.6288zM366.28842,314.78668v-1.63348h6.65059v1.63348z" data-paper-data="{&quot;glyphName&quot;:&quot;T&quot;,&quot;glyphIndex&quot;:6,&quot;word&quot;:2}" fill="#e03c31"/><path d="M407.20314,328.20453c-0.93342,-4.08369 -3.46142,-2.80025 -18.35717,-9.87865h-2.37243c-0.62228,0 -0.97231,0.15557 -1.28345,0.42782c0.58338,0.66117 1.63348,1.36123 2.25575,1.67237c4.16148,2.0224 14.42905,6.02831 15.168,6.33945c0.89452,0.35003 1.43902,0.58338 1.78905,1.05009c0.58338,0.73895 0.58338,1.86683 -0.19446,2.76135c-0.81674,-1.36123 -1.59459,-1.71126 -2.80025,-2.21686l-15.94585,-6.84505c-1.94462,-0.81674 -1.94462,-3.11139 -0.66117,-3.85034c0.35003,-0.19446 0.93342,-0.42782 1.82794,-0.42782h20.61293v-6.5728h-17.65711c-3.11139,0 -5.40603,1.94462 -5.52271,4.58929c-1.90572,0.89452 -2.95582,2.83914 -2.528,5.17268c0.38892,2.33354 2.91692,3.38363 2.99471,3.38363c0.07778,0.03889 11.00653,4.66708 15.36247,6.61169c0.66117,0.27225 1.40012,0.5056 1.82794,0.93342c1.67237,1.47791 0.27225,4.08369 -2.21686,4.08369h-15.55693v-1.59459h16.99594c0.58338,-0.58338 0.58338,-1.43902 -0.19446,-1.90572c-0.31114,-0.19446 -0.58338,-0.31114 -1.32234,-0.58338h-17.96825v6.5728h18.04604c1.82794,0 3.65588,-0.97231 4.62819,-2.37243c0.46671,-0.70006 0.73895,-1.47791 0.77785,-2.37243c1.75015,-1.05009 2.72246,-2.99471 2.29465,-4.97822zM404.75292,313.1532v1.59459h-18.08493c0.31114,-0.97231 1.40012,-1.59459 2.91692,-1.59459z" data-paper-data="{&quot;glyphName&quot;:&quot;S&quot;,&quot;glyphIndex&quot;:7,&quot;lastGlyphOfWord&quot;:true,&quot;word&quot;:2}" fill="#ffb25b"/></g></g></g></svg>