<svg width="150" height="150" viewBox="0 0 150 150" fill="none" xmlns="http://www.w3.org/2000/svg">
<path fill-rule="evenodd" clip-rule="evenodd" d="M74.3737 0.0026711C32.9538 0.348594 -0.343251 34.2065 0.0026711 75.6264C0.348594 117.046 34.2065 150.343 75.6264 149.997C117.046 149.652 150.343 115.794 149.997 74.3737C149.652 32.9538 115.794 -0.343251 74.3737 0.0026711ZM37.5068 34.8668C42.7573 29.9698 50.9835 30.2564 55.8805 35.5069L75.5815 56.6301L96.6047 36.897C101.84 31.9833 110.067 32.2437 114.98 37.4786C119.894 42.7135 119.634 50.9405 114.399 55.8542L93.3152 75.6439L113.061 96.8153C117.958 102.066 117.671 110.292 112.421 115.189C107.171 120.086 98.9444 119.799 94.0474 114.549L74.3579 93.438L53.2725 113.23C48.0376 118.143 39.8106 117.883 34.8969 112.648C29.9833 107.413 30.2437 99.1861 35.4785 94.2724L56.6243 74.4242L36.8668 53.2404C31.9698 47.9899 32.2564 39.7638 37.5068 34.8668Z" fill="#AF3333"/>
</svg>
