<svg width="1440" height="371" viewBox="0 0 1440 371" fill="none" xmlns="http://www.w3.org/2000/svg">
<rect width="1440" height="239.08" fill="#F88805"/>
<path fill-rule="evenodd" clip-rule="evenodd" d="M0 327.175L60 323.169C120 319.163 240 259.076 360 263.082C480 267.087 672.5 371 792.5 371C893 371 973 355.727 1100 327.175C1227 298.623 1225 300.779 1311.5 279.221L1440 255.07V207H1380C1320 207 1200 207 1080 207C960 207 840 207 720 207C600 207 480 207 360 207C240 207 120 207 60 207H0V327.175Z" fill="#F88805"/>
</svg>
